M48
; DRILL file {KiCad (7.0.0)} date Sun Jul  9 18:50:53 2023
; FORMAT={-:-/ absolute / metric / decimal}
; #@! TF.CreationDate,2023-07-09T18:50:53+02:00
; #@! TF.GenerationSoftware,Kicad,Pcbnew,(7.0.0)
; #@! TF.FileFunction,Plated,1,4,PTH
FMAT,2
METRIC
; #@! TA.AperFunction,Plated,PTH,ViaDrill
T1C0.400
; #@! TA.AperFunction,Plated,PTH,ComponentDrill
T2C0.800
; #@! TA.AperFunction,Plated,PTH,ComponentDrill
T3C0.890
; #@! TA.AperFunction,Plated,PTH,ComponentDrill
T4C0.900
; #@! TA.AperFunction,Plated,PTH,ComponentDrill
T5C1.200
; #@! TA.AperFunction,Plated,PTH,ComponentDrill
T6C1.300
; #@! TA.AperFunction,Plated,PTH,ComponentDrill
T7C2.010
; #@! TA.AperFunction,Plated,PTH,ComponentDrill
T8C2.200
%
G90
G05
T1
X153.375Y-103.225
X153.4Y-106.0
X155.6Y-103.2
X156.7Y-75.5
X157.2Y-97.8
X157.4Y-102.8
X159.4Y-80.6
X159.4Y-101.0
X160.0Y-75.5
X161.2Y-103.4
X161.2Y-108.6
X163.4Y-75.5
X167.0Y-76.8
X167.0Y-103.0
X169.05Y-101.55
X170.4Y-71.8
X170.4Y-74.0
X170.6Y-97.6
X171.2Y-102.8
X172.4Y-83.4
X173.3Y-97.3
X174.4Y-101.8
X174.6Y-77.8
X175.6Y-82.2
X176.6Y-96.2
X178.0Y-107.2
X178.4Y-75.4
X178.6Y-77.6
X178.6Y-79.8
X179.4Y-83.2
X179.4Y-87.2
X179.4Y-93.8
X179.4Y-95.549
X181.4Y-83.2
X181.4Y-87.2
X185.2Y-89.0
X185.2Y-90.649
X186.8Y-100.0
X186.8Y-102.0
X188.2Y-85.0
X190.6Y-81.8
X192.6Y-81.8
X192.6Y-94.6
X193.8Y-87.8
X194.6Y-92.2
X197.0Y-86.4
X201.0Y-87.5
X201.0Y-90.0
X206.5Y-87.5
X206.5Y-90.0
X210.0Y-87.5
X210.0Y-90.0
X214.0Y-87.5
X214.0Y-90.0
T3
X216.3Y-86.26
X216.3Y-88.8
T4
X177.86Y-89.9
X180.4Y-89.9
X182.94Y-89.9
T5
X106.89Y-72.3
X106.89Y-82.46
X106.89Y-97.342
X106.89Y-107.502
X117.05Y-72.3
X117.05Y-82.46
X117.05Y-97.342
X117.05Y-107.502
T6
X158.2Y-87.4
X158.2Y-92.4
X168.2Y-89.9
T7
X221.38Y-83.72
X221.38Y-93.88
T8
X113.25Y-77.38
X113.25Y-102.422
T2
X203.5Y-101.55G85X205.7Y-101.55
G05
X203.5Y-107.65G85X205.7Y-107.65
G05
X209.2Y-105.45G85X209.2Y-103.25
G05
T0
M30
