%TF.GenerationSoftware,KiCad,Pcbnew,(7.0.0)*%
%TF.CreationDate,2023-07-09T18:50:50+02:00*%
%TF.ProjectId,Differential_Probe,44696666-6572-4656-9e74-69616c5f5072,rev?*%
%TF.SameCoordinates,Original*%
%TF.FileFunction,Soldermask,Bot*%
%TF.FilePolarity,Negative*%
%FSLAX46Y46*%
G04 Gerber Fmt 4.6, Leading zero omitted, Abs format (unit mm)*
G04 Created by KiCad (PCBNEW (7.0.0)) date 2023-07-09 18:50:50*
%MOMM*%
%LPD*%
G01*
G04 APERTURE LIST*
G04 Aperture macros list*
%AMRoundRect*
0 Rectangle with rounded corners*
0 $1 Rounding radius*
0 $2 $3 $4 $5 $6 $7 $8 $9 X,Y pos of 4 corners*
0 Add a 4 corners polygon primitive as box body*
4,1,4,$2,$3,$4,$5,$6,$7,$8,$9,$2,$3,0*
0 Add four circle primitives for the rounded corners*
1,1,$1+$1,$2,$3*
1,1,$1+$1,$4,$5*
1,1,$1+$1,$6,$7*
1,1,$1+$1,$8,$9*
0 Add four rect primitives between the rounded corners*
20,1,$1+$1,$2,$3,$4,$5,0*
20,1,$1+$1,$4,$5,$6,$7,0*
20,1,$1+$1,$6,$7,$8,$9,0*
20,1,$1+$1,$8,$9,$2,$3,0*%
G04 Aperture macros list end*
%ADD10O,4.000000X2.000000*%
%ADD11O,2.000000X4.000000*%
%ADD12C,4.000000*%
%ADD13C,1.950000*%
%ADD14C,3.200000*%
%ADD15C,1.800000*%
%ADD16C,3.300000*%
%ADD17C,1.446000*%
%ADD18C,3.015000*%
%ADD19C,1.676400*%
%ADD20RoundRect,0.250000X0.275000X0.700000X-0.275000X0.700000X-0.275000X-0.700000X0.275000X-0.700000X0*%
%ADD21RoundRect,0.250000X0.350000X0.450000X-0.350000X0.450000X-0.350000X-0.450000X0.350000X-0.450000X0*%
%ADD22RoundRect,0.250000X0.337500X0.475000X-0.337500X0.475000X-0.337500X-0.475000X0.337500X-0.475000X0*%
%ADD23R,1.528000X0.650000*%
%ADD24RoundRect,0.250000X-0.337500X-0.475000X0.337500X-0.475000X0.337500X0.475000X-0.337500X0.475000X0*%
%ADD25RoundRect,0.250000X-0.450000X0.350000X-0.450000X-0.350000X0.450000X-0.350000X0.450000X0.350000X0*%
%ADD26RoundRect,0.250000X-0.475000X0.337500X-0.475000X-0.337500X0.475000X-0.337500X0.475000X0.337500X0*%
%ADD27RoundRect,0.250000X0.475000X-0.337500X0.475000X0.337500X-0.475000X0.337500X-0.475000X-0.337500X0*%
%ADD28RoundRect,0.150000X-0.587500X-0.150000X0.587500X-0.150000X0.587500X0.150000X-0.587500X0.150000X0*%
%ADD29RoundRect,0.250000X0.450000X-0.350000X0.450000X0.350000X-0.450000X0.350000X-0.450000X-0.350000X0*%
G04 APERTURE END LIST*
D10*
%TO.C,J4*%
X204599999Y-101549999D03*
D11*
X209199999Y-104349999D03*
D10*
X204599999Y-107649999D03*
%TD*%
D12*
%TO.C,RV1*%
X163200000Y-89900000D03*
D13*
X158200000Y-87400000D03*
X168200000Y-89900000D03*
X158200000Y-92400000D03*
%TD*%
D14*
%TO.C,M3*%
X225300000Y-71425000D03*
%TD*%
D15*
%TO.C,J2*%
X106890000Y-72300000D03*
X117050000Y-72300000D03*
X106890000Y-82460000D03*
X117050000Y-82460000D03*
D16*
X113250000Y-77380000D03*
%TD*%
D15*
%TO.C,J3*%
X106890000Y-97342150D03*
X117050000Y-97342150D03*
X106890000Y-107502150D03*
X117050000Y-107502150D03*
D16*
X113250000Y-102422150D03*
%TD*%
D17*
%TO.C,J1*%
X216300000Y-88800000D03*
X216300000Y-86260000D03*
D18*
X221380000Y-83720000D03*
X221380000Y-93880000D03*
%TD*%
D14*
%TO.C,M3*%
X225300000Y-108225000D03*
%TD*%
%TO.C,M3*%
X104750000Y-89899999D03*
%TD*%
D19*
%TO.C,S1*%
X182940000Y-89900000D03*
X180400000Y-89900000D03*
X177860000Y-89900000D03*
%TD*%
D20*
%TO.C,FB1*%
X182625000Y-107175000D03*
X179475000Y-107175000D03*
%TD*%
D21*
%TO.C,R28*%
X190062500Y-109250000D03*
X188062500Y-109250000D03*
%TD*%
D22*
%TO.C,C23*%
X175625000Y-83450000D03*
X173550000Y-83450000D03*
%TD*%
D23*
%TO.C,IC4*%
X164721999Y-102209999D03*
X164721999Y-103479999D03*
X164721999Y-104749999D03*
X164721999Y-106019999D03*
X159299999Y-106019999D03*
X159299999Y-104749999D03*
X159299999Y-103479999D03*
X159299999Y-102209999D03*
%TD*%
D24*
%TO.C,C29*%
X162647000Y-108400000D03*
X164722000Y-108400000D03*
%TD*%
D25*
%TO.C,R25*%
X169050000Y-102750000D03*
X169050000Y-104750000D03*
%TD*%
D24*
%TO.C,C26*%
X172325000Y-102850000D03*
X174400000Y-102850000D03*
%TD*%
D26*
%TO.C,C22*%
X198750000Y-103312500D03*
X198750000Y-105387500D03*
%TD*%
D27*
%TO.C,C30*%
X157200000Y-101087500D03*
X157200000Y-99012500D03*
%TD*%
D24*
%TO.C,C25*%
X173450000Y-96250000D03*
X175525000Y-96250000D03*
%TD*%
D26*
%TO.C,C20*%
X185700000Y-107175000D03*
X185700000Y-109250000D03*
%TD*%
D28*
%TO.C,Q1*%
X190062500Y-107250000D03*
X190062500Y-105350000D03*
X191937500Y-106300000D03*
%TD*%
D20*
%TO.C,FB2*%
X156525000Y-104750000D03*
X153375000Y-104750000D03*
%TD*%
D26*
%TO.C,C19*%
X195150000Y-103312500D03*
X195150000Y-105387500D03*
%TD*%
D22*
%TO.C,C24*%
X176750000Y-76500000D03*
X174675000Y-76500000D03*
%TD*%
%TO.C,C27*%
X194700000Y-93350000D03*
X192625000Y-93350000D03*
%TD*%
%TO.C,C28*%
X195825000Y-86400000D03*
X193750000Y-86400000D03*
%TD*%
D20*
%TO.C,FB3*%
X198725000Y-100850000D03*
X195575000Y-100850000D03*
%TD*%
D26*
%TO.C,C21*%
X176450000Y-107175000D03*
X176450000Y-109250000D03*
%TD*%
D29*
%TO.C,R26*%
X169050000Y-109175000D03*
X169050000Y-107175000D03*
%TD*%
M02*
