%TF.GenerationSoftware,KiCad,Pcbnew,(7.0.0)*%
%TF.CreationDate,2023-07-09T18:50:50+02:00*%
%TF.ProjectId,Differential_Probe,44696666-6572-4656-9e74-69616c5f5072,rev?*%
%TF.SameCoordinates,Original*%
%TF.FileFunction,Paste,Top*%
%TF.FilePolarity,Positive*%
%FSLAX46Y46*%
G04 Gerber Fmt 4.6, Leading zero omitted, Abs format (unit mm)*
G04 Created by KiCad (PCBNEW (7.0.0)) date 2023-07-09 18:50:50*
%MOMM*%
%LPD*%
G01*
G04 APERTURE LIST*
G04 Aperture macros list*
%AMRoundRect*
0 Rectangle with rounded corners*
0 $1 Rounding radius*
0 $2 $3 $4 $5 $6 $7 $8 $9 X,Y pos of 4 corners*
0 Add a 4 corners polygon primitive as box body*
4,1,4,$2,$3,$4,$5,$6,$7,$8,$9,$2,$3,0*
0 Add four circle primitives for the rounded corners*
1,1,$1+$1,$2,$3*
1,1,$1+$1,$4,$5*
1,1,$1+$1,$6,$7*
1,1,$1+$1,$8,$9*
0 Add four rect primitives between the rounded corners*
20,1,$1+$1,$2,$3,$4,$5,0*
20,1,$1+$1,$4,$5,$6,$7,0*
20,1,$1+$1,$6,$7,$8,$9,0*
20,1,$1+$1,$8,$9,$2,$3,0*%
G04 Aperture macros list end*
%ADD10RoundRect,0.250000X-1.075000X0.400000X-1.075000X-0.400000X1.075000X-0.400000X1.075000X0.400000X0*%
%ADD11RoundRect,0.250000X-0.475000X0.337500X-0.475000X-0.337500X0.475000X-0.337500X0.475000X0.337500X0*%
%ADD12RoundRect,0.250000X-0.350000X-0.450000X0.350000X-0.450000X0.350000X0.450000X-0.350000X0.450000X0*%
%ADD13RoundRect,0.250000X-0.400000X-1.075000X0.400000X-1.075000X0.400000X1.075000X-0.400000X1.075000X0*%
%ADD14R,0.550000X1.050000*%
%ADD15RoundRect,0.250000X-0.412500X-1.100000X0.412500X-1.100000X0.412500X1.100000X-0.412500X1.100000X0*%
%ADD16RoundRect,0.250000X-0.450000X0.350000X-0.450000X-0.350000X0.450000X-0.350000X0.450000X0.350000X0*%
%ADD17RoundRect,0.150000X0.587500X0.150000X-0.587500X0.150000X-0.587500X-0.150000X0.587500X-0.150000X0*%
%ADD18R,1.400000X0.850000*%
%ADD19RoundRect,0.250000X0.350000X0.450000X-0.350000X0.450000X-0.350000X-0.450000X0.350000X-0.450000X0*%
%ADD20RoundRect,0.250000X0.450000X-0.350000X0.450000X0.350000X-0.450000X0.350000X-0.450000X-0.350000X0*%
G04 APERTURE END LIST*
D10*
%TO.C,R6*%
X151600000Y-82460000D03*
X151600000Y-85560000D03*
%TD*%
D11*
%TO.C,C10*%
X160000000Y-72300000D03*
X160000000Y-74375000D03*
%TD*%
D12*
%TO.C,R27*%
X202650000Y-88900000D03*
X204650000Y-88900000D03*
%TD*%
D13*
%TO.C,R12*%
X141200000Y-107502150D03*
X144300000Y-107502150D03*
%TD*%
D10*
%TO.C,R5*%
X151600000Y-72300000D03*
X151600000Y-75400000D03*
%TD*%
D14*
%TO.C,IC3*%
X194699999Y-88599999D03*
X193749999Y-88599999D03*
X192799999Y-88599999D03*
X192799999Y-91199999D03*
X194699999Y-91199999D03*
%TD*%
D11*
%TO.C,C12*%
X156700000Y-105427150D03*
X156700000Y-107502150D03*
%TD*%
D14*
%TO.C,IC1*%
X175624999Y-78674999D03*
X174674999Y-78674999D03*
X173724999Y-78674999D03*
X173724999Y-81274999D03*
X174674999Y-81274999D03*
X175624999Y-81274999D03*
%TD*%
D13*
%TO.C,R2*%
X129533333Y-72300000D03*
X132633333Y-72300000D03*
%TD*%
D15*
%TO.C,C7*%
X135354166Y-97342150D03*
X138479166Y-97342150D03*
%TD*%
D16*
%TO.C,R18*%
X189550000Y-89900000D03*
X189550000Y-91900000D03*
%TD*%
%TO.C,R16*%
X180400000Y-98850000D03*
X180400000Y-100850000D03*
%TD*%
D15*
%TO.C,C3*%
X135354166Y-82460000D03*
X138479166Y-82460000D03*
%TD*%
D11*
%TO.C,C9*%
X156700000Y-72300000D03*
X156700000Y-74375000D03*
%TD*%
%TO.C,C13*%
X160000000Y-105427150D03*
X160000000Y-107502150D03*
%TD*%
D17*
%TO.C,D2*%
X157637500Y-100950000D03*
X157637500Y-99050000D03*
X155762500Y-100000000D03*
%TD*%
D18*
%TO.C,C15*%
X168349999Y-72907499D03*
X168349999Y-76807499D03*
%TD*%
D13*
%TO.C,R9*%
X123700000Y-107502150D03*
X126800000Y-107502150D03*
%TD*%
D17*
%TO.C,D1*%
X157637500Y-80550000D03*
X157637500Y-78650000D03*
X155762500Y-79600000D03*
%TD*%
D10*
%TO.C,R8*%
X151600000Y-104402150D03*
X151600000Y-107502150D03*
%TD*%
D12*
%TO.C,R21*%
X189550000Y-79162500D03*
X191550000Y-79162500D03*
%TD*%
D16*
%TO.C,R24*%
X198200000Y-88900000D03*
X198200000Y-90900000D03*
%TD*%
D15*
%TO.C,C8*%
X141175000Y-97342150D03*
X144300000Y-97342150D03*
%TD*%
D13*
%TO.C,R3*%
X135366666Y-72300000D03*
X138466666Y-72300000D03*
%TD*%
D11*
%TO.C,C14*%
X163400000Y-105427150D03*
X163400000Y-107502150D03*
%TD*%
%TO.C,C11*%
X163400000Y-72300000D03*
X163400000Y-74375000D03*
%TD*%
D10*
%TO.C,R7*%
X151600000Y-94242150D03*
X151600000Y-97342150D03*
%TD*%
D11*
%TO.C,C17*%
X183550000Y-79162500D03*
X183550000Y-81237500D03*
%TD*%
%TO.C,C18*%
X183550000Y-98812500D03*
X183550000Y-100887500D03*
%TD*%
D18*
%TO.C,C16*%
X168349999Y-102994649D03*
X168349999Y-106894649D03*
%TD*%
D19*
%TO.C,R23*%
X191550000Y-84950000D03*
X189550000Y-84950000D03*
%TD*%
D16*
%TO.C,R13*%
X173650000Y-72907500D03*
X173650000Y-74907500D03*
%TD*%
D19*
%TO.C,R22*%
X191550000Y-100887500D03*
X189550000Y-100887500D03*
%TD*%
D15*
%TO.C,C6*%
X129520833Y-97342150D03*
X132645833Y-97342150D03*
%TD*%
%TO.C,C5*%
X123687500Y-97342150D03*
X126812500Y-97342150D03*
%TD*%
D12*
%TO.C,R17*%
X175369500Y-94800000D03*
X177369500Y-94800000D03*
%TD*%
D20*
%TO.C,R14*%
X173650000Y-106894650D03*
X173650000Y-104894650D03*
%TD*%
D16*
%TO.C,R15*%
X180400000Y-79200000D03*
X180400000Y-81200000D03*
%TD*%
D13*
%TO.C,R10*%
X129533333Y-107502150D03*
X132633333Y-107502150D03*
%TD*%
D15*
%TO.C,C1*%
X123687500Y-82460000D03*
X126812500Y-82460000D03*
%TD*%
%TO.C,C4*%
X141175000Y-82460000D03*
X144300000Y-82460000D03*
%TD*%
D13*
%TO.C,R4*%
X141200000Y-72300000D03*
X144300000Y-72300000D03*
%TD*%
D16*
%TO.C,R19*%
X189550000Y-94800000D03*
X189550000Y-96800000D03*
%TD*%
D12*
%TO.C,R20*%
X181550000Y-94800000D03*
X183550000Y-94800000D03*
%TD*%
D15*
%TO.C,C2*%
X129520833Y-82460000D03*
X132645833Y-82460000D03*
%TD*%
D14*
%TO.C,IC2*%
X173449999Y-100924999D03*
X174399999Y-100924999D03*
X175349999Y-100924999D03*
X175349999Y-98324999D03*
X174399999Y-98324999D03*
X173449999Y-98324999D03*
%TD*%
D13*
%TO.C,R1*%
X123700000Y-72300000D03*
X126800000Y-72300000D03*
%TD*%
%TO.C,R11*%
X135366666Y-107502150D03*
X138466666Y-107502150D03*
%TD*%
M02*
