%TF.GenerationSoftware,KiCad,Pcbnew,(7.0.0)*%
%TF.CreationDate,2023-07-09T18:50:50+02:00*%
%TF.ProjectId,Differential_Probe,44696666-6572-4656-9e74-69616c5f5072,rev?*%
%TF.SameCoordinates,Original*%
%TF.FileFunction,Copper,L2,Inr*%
%TF.FilePolarity,Positive*%
%FSLAX46Y46*%
G04 Gerber Fmt 4.6, Leading zero omitted, Abs format (unit mm)*
G04 Created by KiCad (PCBNEW (7.0.0)) date 2023-07-09 18:50:50*
%MOMM*%
%LPD*%
G01*
G04 APERTURE LIST*
%TA.AperFunction,ComponentPad*%
%ADD10O,4.000000X2.000000*%
%TD*%
%TA.AperFunction,ComponentPad*%
%ADD11O,2.000000X4.000000*%
%TD*%
%TA.AperFunction,ComponentPad*%
%ADD12C,1.950000*%
%TD*%
%TA.AperFunction,ComponentPad*%
%ADD13C,1.800000*%
%TD*%
%TA.AperFunction,ComponentPad*%
%ADD14C,3.300000*%
%TD*%
%TA.AperFunction,ComponentPad*%
%ADD15C,1.446000*%
%TD*%
%TA.AperFunction,ComponentPad*%
%ADD16C,3.015000*%
%TD*%
%TA.AperFunction,ComponentPad*%
%ADD17C,1.676400*%
%TD*%
%TA.AperFunction,ViaPad*%
%ADD18C,0.800000*%
%TD*%
G04 APERTURE END LIST*
D10*
%TO.N,+12V*%
%TO.C,J4*%
X204599999Y-101549999D03*
D11*
%TO.N,GND*%
X209199999Y-104349999D03*
D10*
X204599999Y-107649999D03*
%TD*%
D12*
%TO.N,Net-(R6-Pad2)*%
%TO.C,RV1*%
X158200000Y-87400000D03*
%TO.N,GNDA*%
X168200000Y-89900000D03*
%TO.N,Net-(R7-Pad1)*%
X158200000Y-92400000D03*
%TD*%
D13*
%TO.N,unconnected-(J2-Pad1)*%
%TO.C,J2*%
X106890000Y-72300000D03*
%TO.N,unconnected-(J2-Pad2)*%
X117050000Y-72300000D03*
%TO.N,unconnected-(J2-Pad3)*%
X106890000Y-82460000D03*
%TO.N,unconnected-(J2-Pad4)*%
X117050000Y-82460000D03*
D14*
%TO.N,Vin_P*%
X113250000Y-77380000D03*
%TD*%
D13*
%TO.N,unconnected-(J3-Pad1)*%
%TO.C,J3*%
X106890000Y-97342150D03*
%TO.N,unconnected-(J3-Pad2)*%
X117050000Y-97342150D03*
%TO.N,unconnected-(J3-Pad3)*%
X106890000Y-107502150D03*
%TO.N,unconnected-(J3-Pad4)*%
X117050000Y-107502150D03*
D14*
%TO.N,Vin_N*%
X113250000Y-102422150D03*
%TD*%
D15*
%TO.N,Out_Analog*%
%TO.C,J1*%
X216300000Y-88800000D03*
%TO.N,GNDA*%
X216300000Y-86260000D03*
D16*
%TO.N,unconnected-(J1-PadMH1)*%
X221380000Y-83720000D03*
%TO.N,unconnected-(J1-PadMH2)*%
X221380000Y-93880000D03*
%TD*%
D17*
%TO.N,Net-(R18-Pad1)*%
%TO.C,S1*%
X182940000Y-89900000D03*
%TO.N,Net-(IC1--IN)*%
X180400000Y-89900000D03*
%TO.N,Net-(R17-Pad1)*%
X177860000Y-89900000D03*
%TD*%
D18*
%TO.N,GNDA*%
X214000000Y-90000000D03*
X214000000Y-87500000D03*
X210000000Y-90000000D03*
X210000000Y-87500000D03*
X206500000Y-90000000D03*
X206500000Y-87500000D03*
X201000000Y-90000000D03*
X201000000Y-87500000D03*
%TO.N,-6V*%
X174600000Y-77800000D03*
X174400000Y-101800000D03*
X159400000Y-80600000D03*
X159400000Y-101000000D03*
X193800000Y-87800000D03*
%TO.N,+6V*%
X186800000Y-102000000D03*
X170400000Y-71800000D03*
X178600000Y-79800000D03*
X185200000Y-89000000D03*
X157400000Y-102800000D03*
X185200000Y-90649500D03*
X186800000Y-100000000D03*
X181400000Y-87200000D03*
X192600000Y-81800000D03*
X170400000Y-74000000D03*
X179400000Y-83200000D03*
X194600000Y-92200000D03*
X173300000Y-97300000D03*
X169050000Y-101550000D03*
X181400000Y-83200000D03*
X179400000Y-87200000D03*
X178000000Y-107200000D03*
X179400000Y-93800000D03*
X179400000Y-95549500D03*
X178600000Y-77600000D03*
X190600000Y-81800000D03*
X170600000Y-97600000D03*
X175600000Y-82200000D03*
%TO.N,GNDA*%
X160000000Y-75500000D03*
X157200000Y-97800000D03*
X171200000Y-102800000D03*
X163400000Y-75500000D03*
X197000000Y-86400000D03*
X167000000Y-76800000D03*
X167000000Y-103000000D03*
X153375000Y-103225000D03*
X161200000Y-108600000D03*
X188200000Y-85000000D03*
X176600000Y-96200000D03*
X153400000Y-106000000D03*
X178400000Y-75400000D03*
X172400000Y-83400000D03*
X192600000Y-94600000D03*
X156700000Y-75500000D03*
X161200000Y-103400000D03*
X155600000Y-103200000D03*
%TD*%
%TA.AperFunction,Conductor*%
%TO.N,GNDA*%
G36*
X225203471Y-68500695D02*
G01*
X225247099Y-68503144D01*
X225517695Y-68518340D01*
X225531498Y-68519896D01*
X225838339Y-68572031D01*
X225851883Y-68575122D01*
X226073553Y-68638984D01*
X226150952Y-68661282D01*
X226164077Y-68665874D01*
X226451618Y-68784978D01*
X226464132Y-68791004D01*
X226736547Y-68941563D01*
X226748303Y-68948950D01*
X227002129Y-69129050D01*
X227012989Y-69137709D01*
X227075230Y-69193331D01*
X227245063Y-69345103D01*
X227254894Y-69354934D01*
X227451698Y-69575158D01*
X227462285Y-69587004D01*
X227470951Y-69597872D01*
X227630562Y-69822823D01*
X227651043Y-69851687D01*
X227658439Y-69863457D01*
X227708433Y-69953914D01*
X227808991Y-70135860D01*
X227815024Y-70148388D01*
X227934124Y-70435921D01*
X227938717Y-70449047D01*
X228024875Y-70748110D01*
X228027969Y-70761666D01*
X228080102Y-71068493D01*
X228081659Y-71082311D01*
X228099305Y-71396528D01*
X228099500Y-71403481D01*
X228099500Y-108196519D01*
X228099305Y-108203472D01*
X228081659Y-108517688D01*
X228080102Y-108531506D01*
X228027969Y-108838333D01*
X228024875Y-108851889D01*
X227938717Y-109150952D01*
X227934124Y-109164078D01*
X227815024Y-109451611D01*
X227808991Y-109464139D01*
X227658442Y-109736538D01*
X227651043Y-109748312D01*
X227470954Y-110002123D01*
X227462285Y-110012995D01*
X227254896Y-110245063D01*
X227245063Y-110254896D01*
X227012995Y-110462285D01*
X227002123Y-110470954D01*
X226748312Y-110651043D01*
X226736538Y-110658442D01*
X226464139Y-110808991D01*
X226451611Y-110815024D01*
X226164078Y-110934124D01*
X226150952Y-110938717D01*
X225851889Y-111024875D01*
X225838333Y-111027969D01*
X225531506Y-111080102D01*
X225517688Y-111081659D01*
X225203472Y-111099305D01*
X225196519Y-111099500D01*
X149524000Y-111099500D01*
X149462000Y-111082887D01*
X149416613Y-111037500D01*
X149400000Y-110975500D01*
X149400000Y-107200000D01*
X177094540Y-107200000D01*
X177095219Y-107206460D01*
X177113646Y-107381795D01*
X177113647Y-107381803D01*
X177114326Y-107388256D01*
X177116331Y-107394428D01*
X177116333Y-107394435D01*
X177158973Y-107525665D01*
X177172821Y-107568284D01*
X177176068Y-107573908D01*
X177176069Y-107573910D01*
X177208616Y-107630284D01*
X177267467Y-107732216D01*
X177271811Y-107737041D01*
X177271813Y-107737043D01*
X177305391Y-107774335D01*
X177394129Y-107872888D01*
X177547270Y-107984151D01*
X177720197Y-108061144D01*
X177905354Y-108100500D01*
X178088143Y-108100500D01*
X178094646Y-108100500D01*
X178279803Y-108061144D01*
X178452730Y-107984151D01*
X178605871Y-107872888D01*
X178694609Y-107774335D01*
X202099500Y-107774335D01*
X202100343Y-107779387D01*
X202100344Y-107779398D01*
X202133874Y-107980330D01*
X202140429Y-108019614D01*
X202142093Y-108024461D01*
X202142094Y-108024465D01*
X202219507Y-108249962D01*
X202219510Y-108249969D01*
X202221172Y-108254810D01*
X202223607Y-108259310D01*
X202223610Y-108259316D01*
X202312408Y-108423400D01*
X202339526Y-108473509D01*
X202492262Y-108669744D01*
X202496029Y-108673211D01*
X202496032Y-108673215D01*
X202671439Y-108834688D01*
X202675215Y-108838164D01*
X202685983Y-108845199D01*
X202879099Y-108971368D01*
X202879102Y-108971369D01*
X202883393Y-108974173D01*
X203111119Y-109074063D01*
X203352179Y-109135108D01*
X203537933Y-109150500D01*
X205659497Y-109150500D01*
X205662067Y-109150500D01*
X205847821Y-109135108D01*
X206088881Y-109074063D01*
X206316607Y-108974173D01*
X206524785Y-108838164D01*
X206707738Y-108669744D01*
X206860474Y-108473509D01*
X206958288Y-108292765D01*
X223445788Y-108292765D01*
X223446282Y-108297262D01*
X223446283Y-108297267D01*
X223474917Y-108557506D01*
X223474918Y-108557513D01*
X223475414Y-108562018D01*
X223476559Y-108566398D01*
X223476561Y-108566408D01*
X223508830Y-108689838D01*
X223543928Y-108824088D01*
X223545693Y-108828242D01*
X223545696Y-108828250D01*
X223648099Y-109069223D01*
X223649870Y-109073390D01*
X223652226Y-109077251D01*
X223652229Y-109077256D01*
X223788618Y-109300737D01*
X223790982Y-109304610D01*
X223964255Y-109512820D01*
X223967630Y-109515844D01*
X223967631Y-109515845D01*
X224072330Y-109609656D01*
X224165998Y-109693582D01*
X224391910Y-109843044D01*
X224637176Y-109958020D01*
X224896569Y-110036060D01*
X225164561Y-110075500D01*
X225365369Y-110075500D01*
X225367631Y-110075500D01*
X225570156Y-110060677D01*
X225834553Y-110001780D01*
X226087558Y-109905014D01*
X226323777Y-109772441D01*
X226538177Y-109606888D01*
X226726186Y-109411881D01*
X226883799Y-109191579D01*
X227007656Y-108950675D01*
X227095118Y-108694305D01*
X227144319Y-108427933D01*
X227154212Y-108157235D01*
X227124586Y-107887982D01*
X227056072Y-107625912D01*
X226950130Y-107376610D01*
X226809018Y-107145390D01*
X226635745Y-106937180D01*
X226530759Y-106843112D01*
X226437382Y-106759446D01*
X226437378Y-106759442D01*
X226434002Y-106756418D01*
X226208090Y-106606956D01*
X226203996Y-106605036D01*
X226203991Y-106605034D01*
X225966929Y-106493904D01*
X225966925Y-106493902D01*
X225962824Y-106491980D01*
X225958477Y-106490672D01*
X225958474Y-106490671D01*
X225707772Y-106415246D01*
X225707771Y-106415245D01*
X225703431Y-106413940D01*
X225698957Y-106413281D01*
X225698950Y-106413280D01*
X225439913Y-106375158D01*
X225439907Y-106375157D01*
X225435439Y-106374500D01*
X225232369Y-106374500D01*
X225230120Y-106374664D01*
X225230109Y-106374665D01*
X225034363Y-106388992D01*
X225034359Y-106388992D01*
X225029844Y-106389323D01*
X225025426Y-106390307D01*
X225025420Y-106390308D01*
X224769877Y-106447232D01*
X224769861Y-106447236D01*
X224765447Y-106448220D01*
X224761216Y-106449838D01*
X224761210Y-106449840D01*
X224516673Y-106543367D01*
X224516663Y-106543371D01*
X224512442Y-106544986D01*
X224508494Y-106547201D01*
X224508489Y-106547204D01*
X224280176Y-106675340D01*
X224280171Y-106675343D01*
X224276223Y-106677559D01*
X224272639Y-106680325D01*
X224272635Y-106680329D01*
X224065407Y-106840343D01*
X224065394Y-106840354D01*
X224061823Y-106843112D01*
X224058685Y-106846366D01*
X224058678Y-106846373D01*
X223876958Y-107034857D01*
X223876952Y-107034864D01*
X223873814Y-107038119D01*
X223871189Y-107041787D01*
X223871179Y-107041800D01*
X223718834Y-107254740D01*
X223718830Y-107254745D01*
X223716201Y-107258421D01*
X223714132Y-107262444D01*
X223714129Y-107262450D01*
X223594416Y-107495293D01*
X223594411Y-107495304D01*
X223592344Y-107499325D01*
X223590884Y-107503602D01*
X223590879Y-107503616D01*
X223506348Y-107751395D01*
X223506344Y-107751407D01*
X223504882Y-107755695D01*
X223504057Y-107760159D01*
X223504057Y-107760161D01*
X223456504Y-108017606D01*
X223456502Y-108017619D01*
X223455681Y-108022067D01*
X223455515Y-108026593D01*
X223455515Y-108026599D01*
X223450576Y-108161762D01*
X223445788Y-108292765D01*
X206958288Y-108292765D01*
X206978828Y-108254810D01*
X207059571Y-108019614D01*
X207100500Y-107774335D01*
X207100500Y-107525665D01*
X207059571Y-107280386D01*
X206978828Y-107045190D01*
X206860474Y-106826491D01*
X206707738Y-106630256D01*
X206703970Y-106626787D01*
X206703967Y-106626784D01*
X206528560Y-106465311D01*
X206528559Y-106465310D01*
X206524785Y-106461836D01*
X206502432Y-106447232D01*
X206320900Y-106328631D01*
X206320893Y-106328627D01*
X206316607Y-106325827D01*
X206311916Y-106323769D01*
X206311910Y-106323766D01*
X206093577Y-106227997D01*
X206093578Y-106227997D01*
X206088881Y-106225937D01*
X206083911Y-106224678D01*
X206083910Y-106224678D01*
X205852795Y-106166151D01*
X205852788Y-106166149D01*
X205847821Y-106164892D01*
X205842709Y-106164468D01*
X205842701Y-106164467D01*
X205664633Y-106149712D01*
X205664617Y-106149711D01*
X205662067Y-106149500D01*
X203537933Y-106149500D01*
X203535383Y-106149711D01*
X203535366Y-106149712D01*
X203357298Y-106164467D01*
X203357288Y-106164468D01*
X203352179Y-106164892D01*
X203347213Y-106166149D01*
X203347204Y-106166151D01*
X203116089Y-106224678D01*
X203116084Y-106224679D01*
X203111119Y-106225937D01*
X203106425Y-106227995D01*
X203106422Y-106227997D01*
X202888089Y-106323766D01*
X202888077Y-106323772D01*
X202883393Y-106325827D01*
X202879111Y-106328624D01*
X202879099Y-106328631D01*
X202679512Y-106459028D01*
X202679506Y-106459031D01*
X202675215Y-106461836D01*
X202671446Y-106465305D01*
X202671439Y-106465311D01*
X202496032Y-106626784D01*
X202496023Y-106626793D01*
X202492262Y-106630256D01*
X202489113Y-106634301D01*
X202489111Y-106634304D01*
X202342678Y-106822440D01*
X202342672Y-106822448D01*
X202339526Y-106826491D01*
X202337088Y-106830995D01*
X202337084Y-106831002D01*
X202223610Y-107040683D01*
X202223605Y-107040693D01*
X202221172Y-107045190D01*
X202219511Y-107050026D01*
X202219507Y-107050037D01*
X202142094Y-107275534D01*
X202142092Y-107275541D01*
X202140429Y-107280386D01*
X202139585Y-107285441D01*
X202139585Y-107285443D01*
X202100344Y-107520601D01*
X202100343Y-107520613D01*
X202099500Y-107525665D01*
X202099500Y-107774335D01*
X178694609Y-107774335D01*
X178732533Y-107732216D01*
X178827179Y-107568284D01*
X178885674Y-107388256D01*
X178905460Y-107200000D01*
X178885674Y-107011744D01*
X178827179Y-106831716D01*
X178732533Y-106667784D01*
X178702387Y-106634304D01*
X178610220Y-106531942D01*
X178610219Y-106531941D01*
X178605871Y-106527112D01*
X178600613Y-106523292D01*
X178600611Y-106523290D01*
X178457988Y-106419669D01*
X178457987Y-106419668D01*
X178452730Y-106415849D01*
X178395365Y-106390308D01*
X178285745Y-106341501D01*
X178285740Y-106341499D01*
X178279803Y-106338856D01*
X178273444Y-106337504D01*
X178273440Y-106337503D01*
X178101008Y-106300852D01*
X178101005Y-106300851D01*
X178094646Y-106299500D01*
X177905354Y-106299500D01*
X177898995Y-106300851D01*
X177898991Y-106300852D01*
X177726559Y-106337503D01*
X177726552Y-106337505D01*
X177720197Y-106338856D01*
X177714262Y-106341498D01*
X177714254Y-106341501D01*
X177553207Y-106413205D01*
X177553202Y-106413207D01*
X177547270Y-106415849D01*
X177542016Y-106419665D01*
X177542011Y-106419669D01*
X177399388Y-106523290D01*
X177399381Y-106523295D01*
X177394129Y-106527112D01*
X177389784Y-106531937D01*
X177389779Y-106531942D01*
X177271813Y-106662956D01*
X177271808Y-106662962D01*
X177267467Y-106667784D01*
X177264222Y-106673404D01*
X177264218Y-106673410D01*
X177176069Y-106826089D01*
X177176066Y-106826094D01*
X177172821Y-106831716D01*
X177170815Y-106837888D01*
X177170813Y-106837894D01*
X177116333Y-107005564D01*
X177116331Y-107005573D01*
X177114326Y-107011744D01*
X177113648Y-107018194D01*
X177113646Y-107018204D01*
X177095962Y-107186464D01*
X177094540Y-107200000D01*
X149400000Y-107200000D01*
X149400000Y-105412067D01*
X207699500Y-105412067D01*
X207699711Y-105414617D01*
X207699712Y-105414633D01*
X207714467Y-105592701D01*
X207714468Y-105592709D01*
X207714892Y-105597821D01*
X207716149Y-105602788D01*
X207716151Y-105602795D01*
X207774678Y-105833910D01*
X207775937Y-105838881D01*
X207777997Y-105843577D01*
X207873766Y-106061910D01*
X207873769Y-106061916D01*
X207875827Y-106066607D01*
X207878627Y-106070893D01*
X207878631Y-106070900D01*
X207979922Y-106225937D01*
X208011836Y-106274785D01*
X208015310Y-106278559D01*
X208015311Y-106278560D01*
X208176784Y-106453967D01*
X208176787Y-106453970D01*
X208180256Y-106457738D01*
X208376491Y-106610474D01*
X208595190Y-106728828D01*
X208830386Y-106809571D01*
X209075665Y-106850500D01*
X209319201Y-106850500D01*
X209324335Y-106850500D01*
X209569614Y-106809571D01*
X209804810Y-106728828D01*
X210023509Y-106610474D01*
X210219744Y-106457738D01*
X210388164Y-106274785D01*
X210524173Y-106066607D01*
X210624063Y-105838881D01*
X210685108Y-105597821D01*
X210700500Y-105412067D01*
X210700500Y-103287933D01*
X210685108Y-103102179D01*
X210624063Y-102861119D01*
X210524173Y-102633393D01*
X210505991Y-102605564D01*
X210452740Y-102524057D01*
X210388164Y-102425215D01*
X210344294Y-102377559D01*
X210223215Y-102246032D01*
X210223211Y-102246029D01*
X210219744Y-102242262D01*
X210078005Y-102131942D01*
X210027559Y-102092678D01*
X210027557Y-102092676D01*
X210023509Y-102089526D01*
X210018921Y-102087043D01*
X209809316Y-101973610D01*
X209809310Y-101973607D01*
X209804810Y-101971172D01*
X209799969Y-101969510D01*
X209799962Y-101969507D01*
X209574465Y-101892094D01*
X209574461Y-101892093D01*
X209569614Y-101890429D01*
X209560768Y-101888952D01*
X209329398Y-101850344D01*
X209329387Y-101850343D01*
X209324335Y-101849500D01*
X209075665Y-101849500D01*
X209070613Y-101850343D01*
X209070601Y-101850344D01*
X208835443Y-101889585D01*
X208835441Y-101889585D01*
X208830386Y-101890429D01*
X208825541Y-101892092D01*
X208825534Y-101892094D01*
X208600037Y-101969507D01*
X208600026Y-101969511D01*
X208595190Y-101971172D01*
X208590693Y-101973605D01*
X208590683Y-101973610D01*
X208381002Y-102087084D01*
X208380995Y-102087088D01*
X208376491Y-102089526D01*
X208372448Y-102092672D01*
X208372440Y-102092678D01*
X208200238Y-102226709D01*
X208180256Y-102242262D01*
X208176793Y-102246023D01*
X208176784Y-102246032D01*
X208015311Y-102421439D01*
X208015305Y-102421446D01*
X208011836Y-102425215D01*
X208009031Y-102429506D01*
X208009028Y-102429512D01*
X207878631Y-102629099D01*
X207878624Y-102629111D01*
X207875827Y-102633393D01*
X207873772Y-102638077D01*
X207873766Y-102638089D01*
X207777997Y-102856422D01*
X207775937Y-102861119D01*
X207774679Y-102866084D01*
X207774678Y-102866089D01*
X207716151Y-103097204D01*
X207716149Y-103097213D01*
X207714892Y-103102179D01*
X207714468Y-103107288D01*
X207714467Y-103107298D01*
X207699712Y-103285366D01*
X207699711Y-103285383D01*
X207699500Y-103287933D01*
X207699500Y-105412067D01*
X149400000Y-105412067D01*
X149400000Y-102800000D01*
X156494540Y-102800000D01*
X156495219Y-102806460D01*
X156513646Y-102981795D01*
X156513647Y-102981803D01*
X156514326Y-102988256D01*
X156516331Y-102994428D01*
X156516333Y-102994435D01*
X156551342Y-103102179D01*
X156572821Y-103168284D01*
X156667467Y-103332216D01*
X156794129Y-103472888D01*
X156947270Y-103584151D01*
X157120197Y-103661144D01*
X157305354Y-103700500D01*
X157488143Y-103700500D01*
X157494646Y-103700500D01*
X157679803Y-103661144D01*
X157852730Y-103584151D01*
X158005871Y-103472888D01*
X158132533Y-103332216D01*
X158227179Y-103168284D01*
X158285674Y-102988256D01*
X158305460Y-102800000D01*
X158285674Y-102611744D01*
X158227179Y-102431716D01*
X158132533Y-102267784D01*
X158112947Y-102246032D01*
X158010220Y-102131942D01*
X158010219Y-102131941D01*
X158005871Y-102127112D01*
X158000613Y-102123292D01*
X158000611Y-102123290D01*
X157857988Y-102019669D01*
X157857987Y-102019668D01*
X157852730Y-102015849D01*
X157846792Y-102013205D01*
X157685745Y-101941501D01*
X157685740Y-101941499D01*
X157679803Y-101938856D01*
X157673444Y-101937504D01*
X157673440Y-101937503D01*
X157501008Y-101900852D01*
X157501005Y-101900851D01*
X157494646Y-101899500D01*
X157305354Y-101899500D01*
X157298995Y-101900851D01*
X157298991Y-101900852D01*
X157126559Y-101937503D01*
X157126552Y-101937505D01*
X157120197Y-101938856D01*
X157114262Y-101941498D01*
X157114254Y-101941501D01*
X156953207Y-102013205D01*
X156953202Y-102013207D01*
X156947270Y-102015849D01*
X156942016Y-102019665D01*
X156942011Y-102019669D01*
X156799388Y-102123290D01*
X156799381Y-102123295D01*
X156794129Y-102127112D01*
X156789784Y-102131937D01*
X156789779Y-102131942D01*
X156671813Y-102262956D01*
X156671808Y-102262962D01*
X156667467Y-102267784D01*
X156664222Y-102273404D01*
X156664218Y-102273410D01*
X156576069Y-102426089D01*
X156576066Y-102426094D01*
X156572821Y-102431716D01*
X156570815Y-102437888D01*
X156570813Y-102437894D01*
X156516333Y-102605564D01*
X156516331Y-102605573D01*
X156514326Y-102611744D01*
X156513648Y-102618194D01*
X156513646Y-102618204D01*
X156501404Y-102734688D01*
X156494540Y-102800000D01*
X149400000Y-102800000D01*
X149400000Y-101000000D01*
X158494540Y-101000000D01*
X158495219Y-101006460D01*
X158513646Y-101181795D01*
X158513647Y-101181803D01*
X158514326Y-101188256D01*
X158516331Y-101194428D01*
X158516333Y-101194435D01*
X158568688Y-101355564D01*
X158572821Y-101368284D01*
X158576068Y-101373908D01*
X158576069Y-101373910D01*
X158606194Y-101426089D01*
X158667467Y-101532216D01*
X158794129Y-101672888D01*
X158947270Y-101784151D01*
X159120197Y-101861144D01*
X159305354Y-101900500D01*
X159488143Y-101900500D01*
X159494646Y-101900500D01*
X159679803Y-101861144D01*
X159852730Y-101784151D01*
X160005871Y-101672888D01*
X160116520Y-101550000D01*
X168144540Y-101550000D01*
X168145219Y-101556460D01*
X168163646Y-101731795D01*
X168163647Y-101731803D01*
X168164326Y-101738256D01*
X168166331Y-101744428D01*
X168166333Y-101744435D01*
X168217157Y-101900852D01*
X168222821Y-101918284D01*
X168226068Y-101923908D01*
X168226069Y-101923910D01*
X168281355Y-102019669D01*
X168317467Y-102082216D01*
X168321811Y-102087041D01*
X168321813Y-102087043D01*
X168412946Y-102188256D01*
X168444129Y-102222888D01*
X168597270Y-102334151D01*
X168770197Y-102411144D01*
X168955354Y-102450500D01*
X169138143Y-102450500D01*
X169144646Y-102450500D01*
X169329803Y-102411144D01*
X169502730Y-102334151D01*
X169655871Y-102222888D01*
X169782533Y-102082216D01*
X169877179Y-101918284D01*
X169915612Y-101800000D01*
X173494540Y-101800000D01*
X173495219Y-101806460D01*
X173513646Y-101981795D01*
X173513647Y-101981803D01*
X173514326Y-101988256D01*
X173516331Y-101994428D01*
X173516333Y-101994435D01*
X173568443Y-102154810D01*
X173572821Y-102168284D01*
X173576068Y-102173908D01*
X173576069Y-102173910D01*
X173606552Y-102226709D01*
X173667467Y-102332216D01*
X173671811Y-102337041D01*
X173671813Y-102337043D01*
X173747804Y-102421439D01*
X173794129Y-102472888D01*
X173947270Y-102584151D01*
X174120197Y-102661144D01*
X174305354Y-102700500D01*
X174488143Y-102700500D01*
X174494646Y-102700500D01*
X174679803Y-102661144D01*
X174852730Y-102584151D01*
X175005871Y-102472888D01*
X175132533Y-102332216D01*
X175227179Y-102168284D01*
X175281858Y-102000000D01*
X185894540Y-102000000D01*
X185895219Y-102006460D01*
X185913646Y-102181795D01*
X185913647Y-102181803D01*
X185914326Y-102188256D01*
X185916331Y-102194428D01*
X185916333Y-102194435D01*
X185961730Y-102334151D01*
X185972821Y-102368284D01*
X185976068Y-102373908D01*
X185976069Y-102373910D01*
X186006194Y-102426089D01*
X186067467Y-102532216D01*
X186071811Y-102537041D01*
X186071813Y-102537043D01*
X186184772Y-102662496D01*
X186194129Y-102672888D01*
X186199387Y-102676708D01*
X186199388Y-102676709D01*
X186232134Y-102700500D01*
X186347270Y-102784151D01*
X186520197Y-102861144D01*
X186705354Y-102900500D01*
X186888143Y-102900500D01*
X186894646Y-102900500D01*
X187079803Y-102861144D01*
X187252730Y-102784151D01*
X187405871Y-102672888D01*
X187532533Y-102532216D01*
X187627179Y-102368284D01*
X187685674Y-102188256D01*
X187705460Y-102000000D01*
X187685674Y-101811744D01*
X187641027Y-101674335D01*
X202099500Y-101674335D01*
X202100343Y-101679387D01*
X202100344Y-101679398D01*
X202137298Y-101900852D01*
X202140429Y-101919614D01*
X202142093Y-101924461D01*
X202142094Y-101924465D01*
X202219507Y-102149962D01*
X202219510Y-102149969D01*
X202221172Y-102154810D01*
X202223607Y-102159310D01*
X202223610Y-102159316D01*
X202333354Y-102362105D01*
X202339526Y-102373509D01*
X202342676Y-102377557D01*
X202342678Y-102377559D01*
X202369871Y-102412496D01*
X202492262Y-102569744D01*
X202496029Y-102573211D01*
X202496032Y-102573215D01*
X202599058Y-102668057D01*
X202675215Y-102738164D01*
X202739755Y-102780330D01*
X202879099Y-102871368D01*
X202879102Y-102871369D01*
X202883393Y-102874173D01*
X203111119Y-102974063D01*
X203352179Y-103035108D01*
X203537933Y-103050500D01*
X205659497Y-103050500D01*
X205662067Y-103050500D01*
X205847821Y-103035108D01*
X206088881Y-102974063D01*
X206316607Y-102874173D01*
X206524785Y-102738164D01*
X206707738Y-102569744D01*
X206860474Y-102373509D01*
X206978828Y-102154810D01*
X207059571Y-101919614D01*
X207100500Y-101674335D01*
X207100500Y-101425665D01*
X207059571Y-101180386D01*
X206978828Y-100945190D01*
X206860474Y-100726491D01*
X206707738Y-100530256D01*
X206703970Y-100526787D01*
X206703967Y-100526784D01*
X206528560Y-100365311D01*
X206528559Y-100365310D01*
X206524785Y-100361836D01*
X206465786Y-100323290D01*
X206320900Y-100228631D01*
X206320893Y-100228627D01*
X206316607Y-100225827D01*
X206311916Y-100223769D01*
X206311910Y-100223766D01*
X206093577Y-100127997D01*
X206093578Y-100127997D01*
X206088881Y-100125937D01*
X206083911Y-100124678D01*
X206083910Y-100124678D01*
X205852795Y-100066151D01*
X205852788Y-100066149D01*
X205847821Y-100064892D01*
X205842709Y-100064468D01*
X205842701Y-100064467D01*
X205664633Y-100049712D01*
X205664617Y-100049711D01*
X205662067Y-100049500D01*
X203537933Y-100049500D01*
X203535383Y-100049711D01*
X203535366Y-100049712D01*
X203357298Y-100064467D01*
X203357288Y-100064468D01*
X203352179Y-100064892D01*
X203347213Y-100066149D01*
X203347204Y-100066151D01*
X203116089Y-100124678D01*
X203116084Y-100124679D01*
X203111119Y-100125937D01*
X203106425Y-100127995D01*
X203106422Y-100127997D01*
X202888089Y-100223766D01*
X202888077Y-100223772D01*
X202883393Y-100225827D01*
X202879111Y-100228624D01*
X202879099Y-100228631D01*
X202679512Y-100359028D01*
X202679506Y-100359031D01*
X202675215Y-100361836D01*
X202671446Y-100365305D01*
X202671439Y-100365311D01*
X202496032Y-100526784D01*
X202496023Y-100526793D01*
X202492262Y-100530256D01*
X202489113Y-100534301D01*
X202489111Y-100534304D01*
X202342678Y-100722440D01*
X202342672Y-100722448D01*
X202339526Y-100726491D01*
X202337088Y-100730995D01*
X202337084Y-100731002D01*
X202223610Y-100940683D01*
X202223605Y-100940693D01*
X202221172Y-100945190D01*
X202219511Y-100950026D01*
X202219507Y-100950037D01*
X202142094Y-101175534D01*
X202142092Y-101175541D01*
X202140429Y-101180386D01*
X202139585Y-101185441D01*
X202139585Y-101185443D01*
X202100344Y-101420601D01*
X202100343Y-101420613D01*
X202099500Y-101425665D01*
X202099500Y-101674335D01*
X187641027Y-101674335D01*
X187627179Y-101631716D01*
X187532533Y-101467784D01*
X187499231Y-101430799D01*
X187410220Y-101331942D01*
X187410219Y-101331941D01*
X187405871Y-101327112D01*
X187400613Y-101323292D01*
X187400611Y-101323290D01*
X187257988Y-101219669D01*
X187257987Y-101219668D01*
X187252730Y-101215849D01*
X187246792Y-101213205D01*
X187085745Y-101141501D01*
X187085740Y-101141499D01*
X187079803Y-101138856D01*
X187073447Y-101137505D01*
X187073441Y-101137503D01*
X187006570Y-101123290D01*
X186997159Y-101121289D01*
X186938057Y-101090392D01*
X186903509Y-101033346D01*
X186903509Y-100966654D01*
X186938057Y-100909608D01*
X186997159Y-100878710D01*
X187079803Y-100861144D01*
X187252730Y-100784151D01*
X187405871Y-100672888D01*
X187532533Y-100532216D01*
X187627179Y-100368284D01*
X187685674Y-100188256D01*
X187705460Y-100000000D01*
X187685674Y-99811744D01*
X187627179Y-99631716D01*
X187532533Y-99467784D01*
X187405871Y-99327112D01*
X187400613Y-99323292D01*
X187400611Y-99323290D01*
X187257988Y-99219669D01*
X187257987Y-99219668D01*
X187252730Y-99215849D01*
X187246792Y-99213205D01*
X187085745Y-99141501D01*
X187085740Y-99141499D01*
X187079803Y-99138856D01*
X187073444Y-99137504D01*
X187073440Y-99137503D01*
X186901008Y-99100852D01*
X186901005Y-99100851D01*
X186894646Y-99099500D01*
X186705354Y-99099500D01*
X186698995Y-99100851D01*
X186698991Y-99100852D01*
X186526559Y-99137503D01*
X186526552Y-99137505D01*
X186520197Y-99138856D01*
X186514262Y-99141498D01*
X186514254Y-99141501D01*
X186353207Y-99213205D01*
X186353202Y-99213207D01*
X186347270Y-99215849D01*
X186342016Y-99219665D01*
X186342011Y-99219669D01*
X186199388Y-99323290D01*
X186199381Y-99323295D01*
X186194129Y-99327112D01*
X186189784Y-99331937D01*
X186189779Y-99331942D01*
X186071813Y-99462956D01*
X186071808Y-99462962D01*
X186067467Y-99467784D01*
X186064222Y-99473404D01*
X186064218Y-99473410D01*
X185976069Y-99626089D01*
X185976066Y-99626094D01*
X185972821Y-99631716D01*
X185970815Y-99637888D01*
X185970813Y-99637894D01*
X185916333Y-99805564D01*
X185916331Y-99805573D01*
X185914326Y-99811744D01*
X185913648Y-99818194D01*
X185913646Y-99818204D01*
X185895962Y-99986464D01*
X185894540Y-100000000D01*
X185895219Y-100006460D01*
X185913646Y-100181795D01*
X185913647Y-100181803D01*
X185914326Y-100188256D01*
X185916331Y-100194428D01*
X185916333Y-100194435D01*
X185970726Y-100361836D01*
X185972821Y-100368284D01*
X186067467Y-100532216D01*
X186071811Y-100537041D01*
X186071813Y-100537043D01*
X186189779Y-100668057D01*
X186194129Y-100672888D01*
X186347270Y-100784151D01*
X186520197Y-100861144D01*
X186577340Y-100873290D01*
X186602839Y-100878710D01*
X186661942Y-100909608D01*
X186696490Y-100966654D01*
X186696490Y-101033346D01*
X186661942Y-101090392D01*
X186602839Y-101121290D01*
X186526559Y-101137503D01*
X186526552Y-101137505D01*
X186520197Y-101138856D01*
X186514262Y-101141498D01*
X186514254Y-101141501D01*
X186353207Y-101213205D01*
X186353202Y-101213207D01*
X186347270Y-101215849D01*
X186342016Y-101219665D01*
X186342011Y-101219669D01*
X186199388Y-101323290D01*
X186199381Y-101323295D01*
X186194129Y-101327112D01*
X186189784Y-101331937D01*
X186189779Y-101331942D01*
X186071813Y-101462956D01*
X186071808Y-101462962D01*
X186067467Y-101467784D01*
X186064222Y-101473404D01*
X186064218Y-101473410D01*
X185976069Y-101626089D01*
X185976066Y-101626094D01*
X185972821Y-101631716D01*
X185970815Y-101637888D01*
X185970813Y-101637894D01*
X185916333Y-101805564D01*
X185916331Y-101805573D01*
X185914326Y-101811744D01*
X185913648Y-101818194D01*
X185913646Y-101818204D01*
X185900966Y-101938856D01*
X185894540Y-102000000D01*
X175281858Y-102000000D01*
X175285674Y-101988256D01*
X175305460Y-101800000D01*
X175285674Y-101611744D01*
X175227179Y-101431716D01*
X175132533Y-101267784D01*
X175060925Y-101188256D01*
X175010220Y-101131942D01*
X175010219Y-101131941D01*
X175005871Y-101127112D01*
X175000613Y-101123292D01*
X175000611Y-101123290D01*
X174857988Y-101019669D01*
X174857987Y-101019668D01*
X174852730Y-101015849D01*
X174846792Y-101013205D01*
X174685745Y-100941501D01*
X174685740Y-100941499D01*
X174679803Y-100938856D01*
X174673444Y-100937504D01*
X174673440Y-100937503D01*
X174501008Y-100900852D01*
X174501005Y-100900851D01*
X174494646Y-100899500D01*
X174305354Y-100899500D01*
X174298995Y-100900851D01*
X174298991Y-100900852D01*
X174126559Y-100937503D01*
X174126552Y-100937505D01*
X174120197Y-100938856D01*
X174114262Y-100941498D01*
X174114254Y-100941501D01*
X173953207Y-101013205D01*
X173953202Y-101013207D01*
X173947270Y-101015849D01*
X173942016Y-101019665D01*
X173942011Y-101019669D01*
X173799388Y-101123290D01*
X173799381Y-101123295D01*
X173794129Y-101127112D01*
X173789784Y-101131937D01*
X173789779Y-101131942D01*
X173671813Y-101262956D01*
X173671808Y-101262962D01*
X173667467Y-101267784D01*
X173664222Y-101273404D01*
X173664218Y-101273410D01*
X173576069Y-101426089D01*
X173576066Y-101426094D01*
X173572821Y-101431716D01*
X173570815Y-101437888D01*
X173570813Y-101437894D01*
X173516333Y-101605564D01*
X173516331Y-101605573D01*
X173514326Y-101611744D01*
X173513648Y-101618194D01*
X173513646Y-101618204D01*
X173507215Y-101679398D01*
X173494540Y-101800000D01*
X169915612Y-101800000D01*
X169935674Y-101738256D01*
X169955460Y-101550000D01*
X169935674Y-101361744D01*
X169877179Y-101181716D01*
X169782533Y-101017784D01*
X169710247Y-100937503D01*
X169660220Y-100881942D01*
X169660219Y-100881941D01*
X169655871Y-100877112D01*
X169650613Y-100873292D01*
X169650611Y-100873290D01*
X169507988Y-100769669D01*
X169507987Y-100769668D01*
X169502730Y-100765849D01*
X169496792Y-100763205D01*
X169335745Y-100691501D01*
X169335740Y-100691499D01*
X169329803Y-100688856D01*
X169323444Y-100687504D01*
X169323440Y-100687503D01*
X169151008Y-100650852D01*
X169151005Y-100650851D01*
X169144646Y-100649500D01*
X168955354Y-100649500D01*
X168948995Y-100650851D01*
X168948991Y-100650852D01*
X168776559Y-100687503D01*
X168776552Y-100687505D01*
X168770197Y-100688856D01*
X168764262Y-100691498D01*
X168764254Y-100691501D01*
X168603207Y-100763205D01*
X168603202Y-100763207D01*
X168597270Y-100765849D01*
X168592016Y-100769665D01*
X168592011Y-100769669D01*
X168449388Y-100873290D01*
X168449381Y-100873295D01*
X168444129Y-100877112D01*
X168439784Y-100881937D01*
X168439779Y-100881942D01*
X168321813Y-101012956D01*
X168321808Y-101012962D01*
X168317467Y-101017784D01*
X168314222Y-101023404D01*
X168314218Y-101023410D01*
X168226069Y-101176089D01*
X168226066Y-101176094D01*
X168222821Y-101181716D01*
X168220815Y-101187888D01*
X168220813Y-101187894D01*
X168166333Y-101355564D01*
X168166331Y-101355573D01*
X168164326Y-101361744D01*
X168163648Y-101368194D01*
X168163646Y-101368204D01*
X168146409Y-101532216D01*
X168144540Y-101550000D01*
X160116520Y-101550000D01*
X160132533Y-101532216D01*
X160227179Y-101368284D01*
X160285674Y-101188256D01*
X160305460Y-101000000D01*
X160285674Y-100811744D01*
X160227179Y-100631716D01*
X160132533Y-100467784D01*
X160005871Y-100327112D01*
X160000613Y-100323292D01*
X160000611Y-100323290D01*
X159857988Y-100219669D01*
X159857987Y-100219668D01*
X159852730Y-100215849D01*
X159846792Y-100213205D01*
X159685745Y-100141501D01*
X159685740Y-100141499D01*
X159679803Y-100138856D01*
X159673444Y-100137504D01*
X159673440Y-100137503D01*
X159501008Y-100100852D01*
X159501005Y-100100851D01*
X159494646Y-100099500D01*
X159305354Y-100099500D01*
X159298995Y-100100851D01*
X159298991Y-100100852D01*
X159126559Y-100137503D01*
X159126552Y-100137505D01*
X159120197Y-100138856D01*
X159114262Y-100141498D01*
X159114254Y-100141501D01*
X158953207Y-100213205D01*
X158953202Y-100213207D01*
X158947270Y-100215849D01*
X158942016Y-100219665D01*
X158942011Y-100219669D01*
X158799388Y-100323290D01*
X158799381Y-100323295D01*
X158794129Y-100327112D01*
X158789784Y-100331937D01*
X158789779Y-100331942D01*
X158671813Y-100462956D01*
X158671808Y-100462962D01*
X158667467Y-100467784D01*
X158664222Y-100473404D01*
X158664218Y-100473410D01*
X158576069Y-100626089D01*
X158576066Y-100626094D01*
X158572821Y-100631716D01*
X158570815Y-100637888D01*
X158570813Y-100637894D01*
X158516333Y-100805564D01*
X158516331Y-100805573D01*
X158514326Y-100811744D01*
X158513648Y-100818194D01*
X158513646Y-100818204D01*
X158499791Y-100950037D01*
X158494540Y-101000000D01*
X149400000Y-101000000D01*
X149400000Y-97600000D01*
X169694540Y-97600000D01*
X169695219Y-97606460D01*
X169713646Y-97781795D01*
X169713647Y-97781803D01*
X169714326Y-97788256D01*
X169716331Y-97794428D01*
X169716333Y-97794435D01*
X169770813Y-97962105D01*
X169772821Y-97968284D01*
X169776068Y-97973908D01*
X169776069Y-97973910D01*
X169841242Y-98086794D01*
X169867467Y-98132216D01*
X169994129Y-98272888D01*
X170147270Y-98384151D01*
X170320197Y-98461144D01*
X170505354Y-98500500D01*
X170688143Y-98500500D01*
X170694646Y-98500500D01*
X170879803Y-98461144D01*
X171052730Y-98384151D01*
X171205871Y-98272888D01*
X171332533Y-98132216D01*
X171427179Y-97968284D01*
X171485674Y-97788256D01*
X171505460Y-97600000D01*
X171485674Y-97411744D01*
X171449366Y-97300000D01*
X172394540Y-97300000D01*
X172395219Y-97306460D01*
X172413646Y-97481795D01*
X172413647Y-97481803D01*
X172414326Y-97488256D01*
X172416331Y-97494428D01*
X172416333Y-97494435D01*
X172448535Y-97593540D01*
X172472821Y-97668284D01*
X172476068Y-97673908D01*
X172476069Y-97673910D01*
X172542086Y-97788256D01*
X172567467Y-97832216D01*
X172694129Y-97972888D01*
X172847270Y-98084151D01*
X173020197Y-98161144D01*
X173205354Y-98200500D01*
X173388143Y-98200500D01*
X173394646Y-98200500D01*
X173579803Y-98161144D01*
X173752730Y-98084151D01*
X173905871Y-97972888D01*
X174032533Y-97832216D01*
X174127179Y-97668284D01*
X174185674Y-97488256D01*
X174205460Y-97300000D01*
X174185674Y-97111744D01*
X174127179Y-96931716D01*
X174032533Y-96767784D01*
X173905871Y-96627112D01*
X173900613Y-96623292D01*
X173900611Y-96623290D01*
X173757988Y-96519669D01*
X173757987Y-96519668D01*
X173752730Y-96515849D01*
X173746792Y-96513205D01*
X173585745Y-96441501D01*
X173585740Y-96441499D01*
X173579803Y-96438856D01*
X173573444Y-96437504D01*
X173573440Y-96437503D01*
X173401008Y-96400852D01*
X173401005Y-96400851D01*
X173394646Y-96399500D01*
X173205354Y-96399500D01*
X173198995Y-96400851D01*
X173198991Y-96400852D01*
X173026559Y-96437503D01*
X173026552Y-96437505D01*
X173020197Y-96438856D01*
X173014262Y-96441498D01*
X173014254Y-96441501D01*
X172853207Y-96513205D01*
X172853202Y-96513207D01*
X172847270Y-96515849D01*
X172842016Y-96519665D01*
X172842011Y-96519669D01*
X172699388Y-96623290D01*
X172699381Y-96623295D01*
X172694129Y-96627112D01*
X172689784Y-96631937D01*
X172689779Y-96631942D01*
X172571813Y-96762956D01*
X172571808Y-96762962D01*
X172567467Y-96767784D01*
X172564222Y-96773404D01*
X172564218Y-96773410D01*
X172476069Y-96926089D01*
X172476066Y-96926094D01*
X172472821Y-96931716D01*
X172470815Y-96937888D01*
X172470813Y-96937894D01*
X172416333Y-97105564D01*
X172416331Y-97105573D01*
X172414326Y-97111744D01*
X172413648Y-97118194D01*
X172413646Y-97118204D01*
X172401067Y-97237894D01*
X172394540Y-97300000D01*
X171449366Y-97300000D01*
X171427179Y-97231716D01*
X171332533Y-97067784D01*
X171205871Y-96927112D01*
X171200613Y-96923292D01*
X171200611Y-96923290D01*
X171057988Y-96819669D01*
X171057987Y-96819668D01*
X171052730Y-96815849D01*
X171046792Y-96813205D01*
X170885745Y-96741501D01*
X170885740Y-96741499D01*
X170879803Y-96738856D01*
X170873444Y-96737504D01*
X170873440Y-96737503D01*
X170701008Y-96700852D01*
X170701005Y-96700851D01*
X170694646Y-96699500D01*
X170505354Y-96699500D01*
X170498995Y-96700851D01*
X170498991Y-96700852D01*
X170326559Y-96737503D01*
X170326552Y-96737505D01*
X170320197Y-96738856D01*
X170314262Y-96741498D01*
X170314254Y-96741501D01*
X170153207Y-96813205D01*
X170153202Y-96813207D01*
X170147270Y-96815849D01*
X170142016Y-96819665D01*
X170142011Y-96819669D01*
X169999388Y-96923290D01*
X169999381Y-96923295D01*
X169994129Y-96927112D01*
X169989784Y-96931937D01*
X169989779Y-96931942D01*
X169871813Y-97062956D01*
X169871808Y-97062962D01*
X169867467Y-97067784D01*
X169864222Y-97073404D01*
X169864218Y-97073410D01*
X169776069Y-97226089D01*
X169776066Y-97226094D01*
X169772821Y-97231716D01*
X169770815Y-97237888D01*
X169770813Y-97237894D01*
X169716333Y-97405564D01*
X169716331Y-97405573D01*
X169714326Y-97411744D01*
X169713648Y-97418194D01*
X169713646Y-97418204D01*
X169695962Y-97586464D01*
X169694540Y-97600000D01*
X149400000Y-97600000D01*
X149400000Y-95549500D01*
X178494540Y-95549500D01*
X178495219Y-95555960D01*
X178513646Y-95731295D01*
X178513647Y-95731303D01*
X178514326Y-95737756D01*
X178516331Y-95743928D01*
X178516333Y-95743935D01*
X178570813Y-95911605D01*
X178572821Y-95917784D01*
X178667467Y-96081716D01*
X178794129Y-96222388D01*
X178947270Y-96333651D01*
X179120197Y-96410644D01*
X179305354Y-96450000D01*
X179488143Y-96450000D01*
X179494646Y-96450000D01*
X179679803Y-96410644D01*
X179852730Y-96333651D01*
X180005871Y-96222388D01*
X180132533Y-96081716D01*
X180227179Y-95917784D01*
X180285674Y-95737756D01*
X180305460Y-95549500D01*
X180285674Y-95361244D01*
X180227179Y-95181216D01*
X180132533Y-95017284D01*
X180005871Y-94876612D01*
X180000613Y-94872792D01*
X180000611Y-94872790D01*
X179866107Y-94775068D01*
X179828507Y-94731045D01*
X179814992Y-94674750D01*
X179828507Y-94618455D01*
X179866107Y-94574432D01*
X180005871Y-94472888D01*
X180132533Y-94332216D01*
X180227179Y-94168284D01*
X180285674Y-93988256D01*
X180297052Y-93880000D01*
X219367308Y-93880000D01*
X219386054Y-94154062D01*
X219386915Y-94158209D01*
X219386917Y-94158218D01*
X219423075Y-94332216D01*
X219441944Y-94423018D01*
X219443362Y-94427010D01*
X219443365Y-94427018D01*
X219531409Y-94674749D01*
X219533936Y-94681859D01*
X219660317Y-94925762D01*
X219662763Y-94929227D01*
X219816287Y-95146723D01*
X219816291Y-95146728D01*
X219818732Y-95150186D01*
X220006231Y-95350948D01*
X220219320Y-95524309D01*
X220454031Y-95667039D01*
X220705990Y-95776481D01*
X220914317Y-95834851D01*
X220966426Y-95849452D01*
X220966428Y-95849452D01*
X220970506Y-95850595D01*
X221242649Y-95888000D01*
X221513114Y-95888000D01*
X221517351Y-95888000D01*
X221789494Y-95850595D01*
X222054010Y-95776481D01*
X222305969Y-95667039D01*
X222540680Y-95524309D01*
X222753769Y-95350948D01*
X222941268Y-95150186D01*
X223099683Y-94925762D01*
X223226064Y-94681859D01*
X223318056Y-94423018D01*
X223373946Y-94154062D01*
X223392692Y-93880000D01*
X223373946Y-93605938D01*
X223318056Y-93336982D01*
X223226064Y-93078141D01*
X223099683Y-92834238D01*
X222941268Y-92609814D01*
X222753769Y-92409052D01*
X222750487Y-92406382D01*
X222750484Y-92406379D01*
X222659239Y-92332146D01*
X222540680Y-92235691D01*
X222537056Y-92233487D01*
X222537053Y-92233485D01*
X222309587Y-92095161D01*
X222309585Y-92095160D01*
X222305969Y-92092961D01*
X222262395Y-92074034D01*
X222057891Y-91985204D01*
X222057881Y-91985200D01*
X222054010Y-91983519D01*
X222034020Y-91977918D01*
X221793573Y-91910547D01*
X221793560Y-91910544D01*
X221789494Y-91909405D01*
X221785307Y-91908829D01*
X221785295Y-91908827D01*
X221521548Y-91872576D01*
X221521535Y-91872575D01*
X221517351Y-91872000D01*
X221242649Y-91872000D01*
X221238465Y-91872575D01*
X221238451Y-91872576D01*
X220974704Y-91908827D01*
X220974689Y-91908829D01*
X220970506Y-91909405D01*
X220966442Y-91910543D01*
X220966426Y-91910547D01*
X220710061Y-91982378D01*
X220710056Y-91982379D01*
X220705990Y-91983519D01*
X220702123Y-91985198D01*
X220702108Y-91985204D01*
X220457914Y-92091274D01*
X220457909Y-92091276D01*
X220454031Y-92092961D01*
X220450420Y-92095156D01*
X220450412Y-92095161D01*
X220222946Y-92233485D01*
X220222935Y-92233492D01*
X220219320Y-92235691D01*
X220216030Y-92238367D01*
X220216028Y-92238369D01*
X220009515Y-92406379D01*
X220009504Y-92406388D01*
X220006231Y-92409052D01*
X220003352Y-92412134D01*
X220003343Y-92412143D01*
X219821620Y-92606721D01*
X219821615Y-92606726D01*
X219818732Y-92609814D01*
X219816296Y-92613264D01*
X219816287Y-92613276D01*
X219662763Y-92830772D01*
X219662759Y-92830777D01*
X219660317Y-92834238D01*
X219658371Y-92837992D01*
X219658367Y-92838000D01*
X219535885Y-93074378D01*
X219535880Y-93074388D01*
X219533936Y-93078141D01*
X219532519Y-93082126D01*
X219532515Y-93082137D01*
X219443365Y-93332981D01*
X219443361Y-93332993D01*
X219441944Y-93336982D01*
X219441081Y-93341132D01*
X219441080Y-93341138D01*
X219386917Y-93601781D01*
X219386915Y-93601792D01*
X219386054Y-93605938D01*
X219385765Y-93610162D01*
X219385764Y-93610170D01*
X219373222Y-93793540D01*
X219367308Y-93880000D01*
X180297052Y-93880000D01*
X180305460Y-93800000D01*
X180285674Y-93611744D01*
X180227179Y-93431716D01*
X180132533Y-93267784D01*
X180005871Y-93127112D01*
X180000613Y-93123292D01*
X180000611Y-93123290D01*
X179857988Y-93019669D01*
X179857987Y-93019668D01*
X179852730Y-93015849D01*
X179846792Y-93013205D01*
X179685745Y-92941501D01*
X179685740Y-92941499D01*
X179679803Y-92938856D01*
X179673444Y-92937504D01*
X179673440Y-92937503D01*
X179501008Y-92900852D01*
X179501005Y-92900851D01*
X179494646Y-92899500D01*
X179305354Y-92899500D01*
X179298995Y-92900851D01*
X179298991Y-92900852D01*
X179126559Y-92937503D01*
X179126552Y-92937505D01*
X179120197Y-92938856D01*
X179114262Y-92941498D01*
X179114254Y-92941501D01*
X178953207Y-93013205D01*
X178953202Y-93013207D01*
X178947270Y-93015849D01*
X178942016Y-93019665D01*
X178942011Y-93019669D01*
X178799388Y-93123290D01*
X178799381Y-93123295D01*
X178794129Y-93127112D01*
X178789784Y-93131937D01*
X178789779Y-93131942D01*
X178671813Y-93262956D01*
X178671808Y-93262962D01*
X178667467Y-93267784D01*
X178664222Y-93273404D01*
X178664218Y-93273410D01*
X178576069Y-93426089D01*
X178576066Y-93426094D01*
X178572821Y-93431716D01*
X178570815Y-93437888D01*
X178570813Y-93437894D01*
X178516333Y-93605564D01*
X178516331Y-93605573D01*
X178514326Y-93611744D01*
X178513648Y-93618194D01*
X178513646Y-93618204D01*
X178499436Y-93753414D01*
X178494540Y-93800000D01*
X178495219Y-93806460D01*
X178513646Y-93981795D01*
X178513647Y-93981803D01*
X178514326Y-93988256D01*
X178516331Y-93994428D01*
X178516333Y-93994435D01*
X178568200Y-94154062D01*
X178572821Y-94168284D01*
X178667467Y-94332216D01*
X178794129Y-94472888D01*
X178799387Y-94476708D01*
X178799388Y-94476709D01*
X178933892Y-94574432D01*
X178971492Y-94618455D01*
X178985007Y-94674750D01*
X178971492Y-94731045D01*
X178933892Y-94775068D01*
X178799388Y-94872790D01*
X178799381Y-94872795D01*
X178794129Y-94876612D01*
X178789784Y-94881437D01*
X178789779Y-94881442D01*
X178671813Y-95012456D01*
X178671808Y-95012462D01*
X178667467Y-95017284D01*
X178664222Y-95022904D01*
X178664218Y-95022910D01*
X178576069Y-95175589D01*
X178576066Y-95175594D01*
X178572821Y-95181216D01*
X178570815Y-95187388D01*
X178570813Y-95187394D01*
X178516333Y-95355064D01*
X178516331Y-95355073D01*
X178514326Y-95361244D01*
X178513648Y-95367694D01*
X178513646Y-95367704D01*
X178497469Y-95521630D01*
X178494540Y-95549500D01*
X149400000Y-95549500D01*
X149400000Y-92400000D01*
X156719443Y-92400000D01*
X156719867Y-92405117D01*
X156739211Y-92638572D01*
X156739212Y-92638580D01*
X156739636Y-92643692D01*
X156740893Y-92648659D01*
X156740895Y-92648666D01*
X156798405Y-92875765D01*
X156799664Y-92880736D01*
X156801724Y-92885432D01*
X156895828Y-93099970D01*
X156895831Y-93099976D01*
X156897889Y-93104667D01*
X156900689Y-93108953D01*
X156900693Y-93108960D01*
X157001304Y-93262956D01*
X157031632Y-93309377D01*
X157035106Y-93313150D01*
X157035107Y-93313152D01*
X157149940Y-93437894D01*
X157197246Y-93489281D01*
X157390212Y-93639473D01*
X157394719Y-93641912D01*
X157394722Y-93641914D01*
X157449638Y-93671632D01*
X157605267Y-93755855D01*
X157836545Y-93835252D01*
X158077737Y-93875500D01*
X158317130Y-93875500D01*
X158322263Y-93875500D01*
X158563455Y-93835252D01*
X158794733Y-93755855D01*
X159009788Y-93639473D01*
X159202754Y-93489281D01*
X159368368Y-93309377D01*
X159502111Y-93104667D01*
X159600336Y-92880736D01*
X159660364Y-92643692D01*
X159680557Y-92400000D01*
X159663984Y-92200000D01*
X193694540Y-92200000D01*
X193695219Y-92206460D01*
X193713646Y-92381795D01*
X193713647Y-92381803D01*
X193714326Y-92388256D01*
X193716331Y-92394428D01*
X193716333Y-92394435D01*
X193722087Y-92412143D01*
X193772821Y-92568284D01*
X193776068Y-92573908D01*
X193776069Y-92573910D01*
X193795012Y-92606721D01*
X193867467Y-92732216D01*
X193871811Y-92737041D01*
X193871813Y-92737043D01*
X193989779Y-92868057D01*
X193994129Y-92872888D01*
X194147270Y-92984151D01*
X194320197Y-93061144D01*
X194505354Y-93100500D01*
X194688143Y-93100500D01*
X194694646Y-93100500D01*
X194879803Y-93061144D01*
X195052730Y-92984151D01*
X195205871Y-92872888D01*
X195332533Y-92732216D01*
X195427179Y-92568284D01*
X195485674Y-92388256D01*
X195505460Y-92200000D01*
X195485674Y-92011744D01*
X195427179Y-91831716D01*
X195332533Y-91667784D01*
X195205871Y-91527112D01*
X195200613Y-91523292D01*
X195200611Y-91523290D01*
X195057988Y-91419669D01*
X195057987Y-91419668D01*
X195052730Y-91415849D01*
X195046792Y-91413205D01*
X194885745Y-91341501D01*
X194885740Y-91341499D01*
X194879803Y-91338856D01*
X194873444Y-91337504D01*
X194873440Y-91337503D01*
X194701008Y-91300852D01*
X194701005Y-91300851D01*
X194694646Y-91299500D01*
X194505354Y-91299500D01*
X194498995Y-91300851D01*
X194498991Y-91300852D01*
X194326559Y-91337503D01*
X194326552Y-91337505D01*
X194320197Y-91338856D01*
X194314262Y-91341498D01*
X194314254Y-91341501D01*
X194153207Y-91413205D01*
X194153202Y-91413207D01*
X194147270Y-91415849D01*
X194142016Y-91419665D01*
X194142011Y-91419669D01*
X193999388Y-91523290D01*
X193999381Y-91523295D01*
X193994129Y-91527112D01*
X193989784Y-91531937D01*
X193989779Y-91531942D01*
X193871813Y-91662956D01*
X193871808Y-91662962D01*
X193867467Y-91667784D01*
X193864222Y-91673404D01*
X193864218Y-91673410D01*
X193776069Y-91826089D01*
X193776066Y-91826094D01*
X193772821Y-91831716D01*
X193770815Y-91837888D01*
X193770813Y-91837894D01*
X193716333Y-92005564D01*
X193716331Y-92005573D01*
X193714326Y-92011744D01*
X193713648Y-92018194D01*
X193713646Y-92018204D01*
X193699655Y-92151333D01*
X193694540Y-92200000D01*
X159663984Y-92200000D01*
X159660364Y-92156308D01*
X159600336Y-91919264D01*
X159502111Y-91695333D01*
X159485654Y-91670144D01*
X159389710Y-91523290D01*
X159368368Y-91490623D01*
X159350131Y-91470812D01*
X159206222Y-91314486D01*
X159206220Y-91314484D01*
X159202754Y-91310719D01*
X159009788Y-91160527D01*
X159005283Y-91158089D01*
X159005277Y-91158085D01*
X158835234Y-91066063D01*
X158794733Y-91044145D01*
X158783413Y-91040259D01*
X158568304Y-90966412D01*
X158568296Y-90966410D01*
X158563455Y-90964748D01*
X158558408Y-90963905D01*
X158558401Y-90963904D01*
X158327325Y-90925344D01*
X158327316Y-90925343D01*
X158322263Y-90924500D01*
X158077737Y-90924500D01*
X158072684Y-90925343D01*
X158072674Y-90925344D01*
X157841598Y-90963904D01*
X157841588Y-90963906D01*
X157836545Y-90964748D01*
X157831705Y-90966409D01*
X157831695Y-90966412D01*
X157610119Y-91042479D01*
X157610115Y-91042480D01*
X157605267Y-91044145D01*
X157600759Y-91046584D01*
X157600758Y-91046585D01*
X157394722Y-91158085D01*
X157394710Y-91158092D01*
X157390212Y-91160527D01*
X157386169Y-91163673D01*
X157386164Y-91163677D01*
X157201287Y-91307573D01*
X157201281Y-91307577D01*
X157197246Y-91310719D01*
X157193784Y-91314478D01*
X157193777Y-91314486D01*
X157035107Y-91486847D01*
X157035101Y-91486854D01*
X157031632Y-91490623D01*
X157028828Y-91494914D01*
X157028824Y-91494920D01*
X156900693Y-91691039D01*
X156900686Y-91691051D01*
X156897889Y-91695333D01*
X156895834Y-91700017D01*
X156895828Y-91700029D01*
X156803289Y-91910999D01*
X156799664Y-91919264D01*
X156798406Y-91924229D01*
X156798405Y-91924234D01*
X156740895Y-92151333D01*
X156740893Y-92151342D01*
X156739636Y-92156308D01*
X156739212Y-92161417D01*
X156739211Y-92161427D01*
X156720416Y-92388256D01*
X156719443Y-92400000D01*
X149400000Y-92400000D01*
X149400000Y-89975369D01*
X160945723Y-89975369D01*
X160946137Y-89979490D01*
X160946138Y-89979501D01*
X160975466Y-90271034D01*
X160975467Y-90271044D01*
X160975882Y-90275162D01*
X160976842Y-90279193D01*
X160976843Y-90279195D01*
X161044705Y-90563958D01*
X161045731Y-90568261D01*
X161047220Y-90572128D01*
X161047221Y-90572130D01*
X161049352Y-90577663D01*
X161154023Y-90849434D01*
X161156007Y-90853055D01*
X161156013Y-90853067D01*
X161218128Y-90966412D01*
X161298825Y-91113665D01*
X161301281Y-91116998D01*
X161301284Y-91117003D01*
X161394719Y-91243814D01*
X161477554Y-91356238D01*
X161687020Y-91572824D01*
X161801156Y-91662956D01*
X161920230Y-91756988D01*
X161920234Y-91756990D01*
X161923485Y-91759558D01*
X162182730Y-91913109D01*
X162186534Y-91914722D01*
X162186538Y-91914724D01*
X162291578Y-91959264D01*
X162460128Y-92030736D01*
X162750729Y-92110340D01*
X163049347Y-92150500D01*
X163273162Y-92150500D01*
X163275244Y-92150500D01*
X163500634Y-92135412D01*
X163795903Y-92075396D01*
X164080537Y-91976560D01*
X164349459Y-91840668D01*
X164597869Y-91670144D01*
X164821333Y-91468032D01*
X165015865Y-91237939D01*
X165100454Y-91105433D01*
X167353565Y-91105433D01*
X167361671Y-91116623D01*
X167386441Y-91135903D01*
X167394993Y-91141490D01*
X167600964Y-91252957D01*
X167610317Y-91257059D01*
X167831814Y-91333099D01*
X167841726Y-91335610D01*
X168072715Y-91374155D01*
X168082911Y-91375000D01*
X168317089Y-91375000D01*
X168327284Y-91374155D01*
X168558273Y-91335610D01*
X168568185Y-91333099D01*
X168789682Y-91257059D01*
X168799035Y-91252957D01*
X169005003Y-91141492D01*
X169013562Y-91135900D01*
X169038327Y-91116623D01*
X169046433Y-91105433D01*
X169039773Y-91093326D01*
X168211542Y-90265095D01*
X168200000Y-90258431D01*
X168188457Y-90265095D01*
X167360225Y-91093326D01*
X167353565Y-91105433D01*
X165100454Y-91105433D01*
X165177993Y-90983970D01*
X165304823Y-90710658D01*
X165394093Y-90422879D01*
X165444209Y-90125770D01*
X165451586Y-89905117D01*
X166720369Y-89905117D01*
X166739706Y-90138489D01*
X166741390Y-90148583D01*
X166798879Y-90375602D01*
X166802198Y-90385269D01*
X166896270Y-90599733D01*
X166901132Y-90608716D01*
X166987061Y-90740242D01*
X166995025Y-90747962D01*
X167004407Y-90742038D01*
X167834904Y-89911542D01*
X167841568Y-89900000D01*
X168558431Y-89900000D01*
X168565095Y-89911542D01*
X169395591Y-90742038D01*
X169404972Y-90747962D01*
X169412940Y-90740237D01*
X169498862Y-90608724D01*
X169503731Y-90599729D01*
X169597801Y-90385269D01*
X169601120Y-90375602D01*
X169658609Y-90148583D01*
X169660293Y-90138489D01*
X169679631Y-89905117D01*
X169679631Y-89900000D01*
X176516186Y-89900000D01*
X176516658Y-89905395D01*
X176535938Y-90125770D01*
X176536602Y-90133351D01*
X176538001Y-90138573D01*
X176538002Y-90138577D01*
X176595825Y-90354378D01*
X176595828Y-90354386D01*
X176597228Y-90359611D01*
X176599514Y-90364515D01*
X176599517Y-90364521D01*
X176693936Y-90567004D01*
X176693939Y-90567010D01*
X176696223Y-90571907D01*
X176699322Y-90576334D01*
X176699324Y-90576336D01*
X176827473Y-90759352D01*
X176827476Y-90759356D01*
X176830579Y-90763787D01*
X176996213Y-90929421D01*
X177000645Y-90932524D01*
X177000647Y-90932526D01*
X177068753Y-90980214D01*
X177188093Y-91063777D01*
X177400389Y-91162772D01*
X177626649Y-91223398D01*
X177860000Y-91243814D01*
X178093351Y-91223398D01*
X178319611Y-91162772D01*
X178531907Y-91063777D01*
X178723787Y-90929421D01*
X178889421Y-90763787D01*
X179023777Y-90571907D01*
X179023856Y-90571736D01*
X179067999Y-90527594D01*
X179130000Y-90510980D01*
X179192001Y-90527594D01*
X179236143Y-90571736D01*
X179236223Y-90571907D01*
X179239327Y-90576340D01*
X179239330Y-90576345D01*
X179367473Y-90759352D01*
X179367476Y-90759356D01*
X179370579Y-90763787D01*
X179536213Y-90929421D01*
X179540645Y-90932524D01*
X179540647Y-90932526D01*
X179608753Y-90980214D01*
X179728093Y-91063777D01*
X179940389Y-91162772D01*
X180166649Y-91223398D01*
X180400000Y-91243814D01*
X180633351Y-91223398D01*
X180859611Y-91162772D01*
X181071907Y-91063777D01*
X181263787Y-90929421D01*
X181429421Y-90763787D01*
X181563777Y-90571907D01*
X181563856Y-90571736D01*
X181607999Y-90527594D01*
X181670000Y-90510980D01*
X181732001Y-90527594D01*
X181776143Y-90571736D01*
X181776223Y-90571907D01*
X181779327Y-90576340D01*
X181779330Y-90576345D01*
X181907473Y-90759352D01*
X181907476Y-90759356D01*
X181910579Y-90763787D01*
X182076213Y-90929421D01*
X182080645Y-90932524D01*
X182080647Y-90932526D01*
X182148753Y-90980214D01*
X182268093Y-91063777D01*
X182480389Y-91162772D01*
X182706649Y-91223398D01*
X182940000Y-91243814D01*
X183173351Y-91223398D01*
X183399611Y-91162772D01*
X183611907Y-91063777D01*
X183803787Y-90929421D01*
X183969421Y-90763787D01*
X184072322Y-90616828D01*
X184117218Y-90577663D01*
X184175196Y-90563958D01*
X184232875Y-90578875D01*
X184276940Y-90618970D01*
X184297219Y-90674990D01*
X184313646Y-90831295D01*
X184313647Y-90831303D01*
X184314326Y-90837756D01*
X184316331Y-90843928D01*
X184316333Y-90843935D01*
X184361834Y-90983970D01*
X184372821Y-91017784D01*
X184376068Y-91023408D01*
X184376069Y-91023410D01*
X184456529Y-91162772D01*
X184467467Y-91181716D01*
X184471811Y-91186541D01*
X184471813Y-91186543D01*
X184520939Y-91241103D01*
X184594129Y-91322388D01*
X184599387Y-91326208D01*
X184599388Y-91326209D01*
X184640720Y-91356238D01*
X184747270Y-91433651D01*
X184920197Y-91510644D01*
X185105354Y-91550000D01*
X185288143Y-91550000D01*
X185294646Y-91550000D01*
X185479803Y-91510644D01*
X185652730Y-91433651D01*
X185805871Y-91322388D01*
X185932533Y-91181716D01*
X186027179Y-91017784D01*
X186085674Y-90837756D01*
X186105460Y-90649500D01*
X186095567Y-90555372D01*
X186086353Y-90467704D01*
X186086352Y-90467703D01*
X186085674Y-90461244D01*
X186027179Y-90281216D01*
X185932533Y-90117284D01*
X185805871Y-89976612D01*
X185734925Y-89925067D01*
X185697326Y-89881045D01*
X185683811Y-89824750D01*
X185697326Y-89768455D01*
X185734926Y-89724432D01*
X185805871Y-89672888D01*
X185932533Y-89532216D01*
X186027179Y-89368284D01*
X186085674Y-89188256D01*
X186105460Y-89000000D01*
X186085674Y-88811744D01*
X186081858Y-88800000D01*
X215071826Y-88800000D01*
X215072298Y-88805395D01*
X215078357Y-88874655D01*
X215090485Y-89013270D01*
X215091882Y-89018485D01*
X215091884Y-89018494D01*
X215144491Y-89214827D01*
X215144494Y-89214835D01*
X215145894Y-89220060D01*
X215148180Y-89224964D01*
X215148183Y-89224970D01*
X215221036Y-89381204D01*
X215236370Y-89414087D01*
X215359164Y-89589455D01*
X215510545Y-89740836D01*
X215685913Y-89863630D01*
X215879940Y-89954106D01*
X215885171Y-89955507D01*
X215885172Y-89955508D01*
X215949685Y-89972794D01*
X216086730Y-90009515D01*
X216300000Y-90028174D01*
X216513270Y-90009515D01*
X216720060Y-89954106D01*
X216914087Y-89863630D01*
X217089455Y-89740836D01*
X217240836Y-89589455D01*
X217363630Y-89414087D01*
X217454106Y-89220060D01*
X217509515Y-89013270D01*
X217528174Y-88800000D01*
X217509515Y-88586730D01*
X217454106Y-88379940D01*
X217363630Y-88185913D01*
X217240836Y-88010545D01*
X217089455Y-87859164D01*
X216963371Y-87770879D01*
X216918526Y-87739478D01*
X216918524Y-87739476D01*
X216914087Y-87736370D01*
X216720060Y-87645894D01*
X216718523Y-87645482D01*
X216669926Y-87612697D01*
X216641763Y-87559721D01*
X216641768Y-87499725D01*
X216669938Y-87446753D01*
X216719680Y-87413207D01*
X216724800Y-87411343D01*
X216908928Y-87325483D01*
X216918272Y-87320088D01*
X216959061Y-87291526D01*
X216966492Y-87283415D01*
X216960579Y-87274133D01*
X216311542Y-86625095D01*
X216299999Y-86618431D01*
X216288457Y-86625095D01*
X215639419Y-87274133D01*
X215633505Y-87283416D01*
X215640936Y-87291525D01*
X215681731Y-87320091D01*
X215691069Y-87325482D01*
X215875200Y-87411344D01*
X215880322Y-87413208D01*
X215930062Y-87446755D01*
X215958232Y-87499725D01*
X215958236Y-87559720D01*
X215930075Y-87612695D01*
X215881476Y-87645482D01*
X215879940Y-87645894D01*
X215875051Y-87648173D01*
X215875042Y-87648177D01*
X215690823Y-87734080D01*
X215690819Y-87734082D01*
X215685913Y-87736370D01*
X215681480Y-87739473D01*
X215681473Y-87739478D01*
X215514980Y-87856058D01*
X215514975Y-87856061D01*
X215510545Y-87859164D01*
X215506721Y-87862987D01*
X215506715Y-87862993D01*
X215362993Y-88006715D01*
X215362987Y-88006721D01*
X215359164Y-88010545D01*
X215356061Y-88014975D01*
X215356058Y-88014980D01*
X215239478Y-88181473D01*
X215239473Y-88181480D01*
X215236370Y-88185913D01*
X215234082Y-88190819D01*
X215234080Y-88190823D01*
X215148183Y-88375029D01*
X215148179Y-88375039D01*
X215145894Y-88379940D01*
X215144495Y-88385160D01*
X215144491Y-88385172D01*
X215091884Y-88581505D01*
X215091882Y-88581516D01*
X215090485Y-88586730D01*
X215090013Y-88592115D01*
X215090013Y-88592120D01*
X215072298Y-88794605D01*
X215071826Y-88800000D01*
X186081858Y-88800000D01*
X186027179Y-88631716D01*
X185932533Y-88467784D01*
X185910903Y-88443762D01*
X185810220Y-88331942D01*
X185810219Y-88331941D01*
X185805871Y-88327112D01*
X185800613Y-88323292D01*
X185800611Y-88323290D01*
X185657988Y-88219669D01*
X185657987Y-88219668D01*
X185652730Y-88215849D01*
X185646792Y-88213205D01*
X185485745Y-88141501D01*
X185485740Y-88141499D01*
X185479803Y-88138856D01*
X185473444Y-88137504D01*
X185473440Y-88137503D01*
X185301008Y-88100852D01*
X185301005Y-88100851D01*
X185294646Y-88099500D01*
X185105354Y-88099500D01*
X185098995Y-88100851D01*
X185098991Y-88100852D01*
X184926559Y-88137503D01*
X184926552Y-88137505D01*
X184920197Y-88138856D01*
X184914262Y-88141498D01*
X184914254Y-88141501D01*
X184753207Y-88213205D01*
X184753202Y-88213207D01*
X184747270Y-88215849D01*
X184742016Y-88219665D01*
X184742011Y-88219669D01*
X184599388Y-88323290D01*
X184599381Y-88323295D01*
X184594129Y-88327112D01*
X184589784Y-88331937D01*
X184589779Y-88331942D01*
X184471813Y-88462956D01*
X184471808Y-88462962D01*
X184467467Y-88467784D01*
X184464222Y-88473404D01*
X184464218Y-88473410D01*
X184376069Y-88626089D01*
X184376066Y-88626094D01*
X184372821Y-88631716D01*
X184370815Y-88637888D01*
X184370813Y-88637894D01*
X184316333Y-88805564D01*
X184316331Y-88805573D01*
X184314326Y-88811744D01*
X184313648Y-88818194D01*
X184313646Y-88818204D01*
X184299329Y-88954434D01*
X184294540Y-89000000D01*
X184295219Y-89006460D01*
X184295219Y-89006461D01*
X184306320Y-89112085D01*
X184296102Y-89175877D01*
X184255182Y-89225871D01*
X184194668Y-89248496D01*
X184130987Y-89237610D01*
X184081424Y-89196169D01*
X183972530Y-89040652D01*
X183972525Y-89040646D01*
X183969421Y-89036213D01*
X183803787Y-88870579D01*
X183799356Y-88867476D01*
X183799352Y-88867473D01*
X183616336Y-88739324D01*
X183616334Y-88739322D01*
X183611907Y-88736223D01*
X183607010Y-88733939D01*
X183607004Y-88733936D01*
X183404521Y-88639517D01*
X183404515Y-88639514D01*
X183399611Y-88637228D01*
X183394386Y-88635828D01*
X183394378Y-88635825D01*
X183178577Y-88578002D01*
X183178573Y-88578001D01*
X183173351Y-88576602D01*
X183167963Y-88576130D01*
X183167960Y-88576130D01*
X182945395Y-88556658D01*
X182940000Y-88556186D01*
X182934605Y-88556658D01*
X182712039Y-88576130D01*
X182712034Y-88576130D01*
X182706649Y-88576602D01*
X182701428Y-88578000D01*
X182701422Y-88578002D01*
X182485621Y-88635825D01*
X182485609Y-88635829D01*
X182480389Y-88637228D01*
X182475488Y-88639513D01*
X182475478Y-88639517D01*
X182272995Y-88733936D01*
X182272984Y-88733942D01*
X182268093Y-88736223D01*
X182263670Y-88739319D01*
X182263663Y-88739324D01*
X182080647Y-88867473D01*
X182080637Y-88867480D01*
X182076213Y-88870579D01*
X182072387Y-88874404D01*
X182072381Y-88874410D01*
X181914410Y-89032381D01*
X181914404Y-89032387D01*
X181910579Y-89036213D01*
X181907480Y-89040637D01*
X181907473Y-89040647D01*
X181779322Y-89223666D01*
X181779318Y-89223672D01*
X181776223Y-89228093D01*
X181776143Y-89228263D01*
X181731998Y-89272407D01*
X181670000Y-89289019D01*
X181608002Y-89272407D01*
X181563856Y-89228263D01*
X181563777Y-89228093D01*
X181469393Y-89093299D01*
X181432526Y-89040647D01*
X181432524Y-89040645D01*
X181429421Y-89036213D01*
X181263787Y-88870579D01*
X181259356Y-88867476D01*
X181259352Y-88867473D01*
X181076336Y-88739324D01*
X181076334Y-88739322D01*
X181071907Y-88736223D01*
X181067010Y-88733939D01*
X181067004Y-88733936D01*
X180864521Y-88639517D01*
X180864515Y-88639514D01*
X180859611Y-88637228D01*
X180854386Y-88635828D01*
X180854378Y-88635825D01*
X180638577Y-88578002D01*
X180638573Y-88578001D01*
X180633351Y-88576602D01*
X180627963Y-88576130D01*
X180627960Y-88576130D01*
X180405395Y-88556658D01*
X180400000Y-88556186D01*
X180394605Y-88556658D01*
X180172039Y-88576130D01*
X180172034Y-88576130D01*
X180166649Y-88576602D01*
X180161428Y-88578000D01*
X180161422Y-88578002D01*
X179945621Y-88635825D01*
X179945609Y-88635829D01*
X179940389Y-88637228D01*
X179935488Y-88639513D01*
X179935478Y-88639517D01*
X179732995Y-88733936D01*
X179732984Y-88733942D01*
X179728093Y-88736223D01*
X179723670Y-88739319D01*
X179723663Y-88739324D01*
X179540647Y-88867473D01*
X179540637Y-88867480D01*
X179536213Y-88870579D01*
X179532387Y-88874404D01*
X179532381Y-88874410D01*
X179374410Y-89032381D01*
X179374404Y-89032387D01*
X179370579Y-89036213D01*
X179367480Y-89040637D01*
X179367473Y-89040647D01*
X179239322Y-89223666D01*
X179239318Y-89223672D01*
X179236223Y-89228093D01*
X179236143Y-89228263D01*
X179191998Y-89272407D01*
X179130000Y-89289019D01*
X179068002Y-89272407D01*
X179023856Y-89228263D01*
X179023777Y-89228093D01*
X178929393Y-89093299D01*
X178892526Y-89040647D01*
X178892524Y-89040645D01*
X178889421Y-89036213D01*
X178723787Y-88870579D01*
X178719356Y-88867476D01*
X178719352Y-88867473D01*
X178536336Y-88739324D01*
X178536334Y-88739322D01*
X178531907Y-88736223D01*
X178527010Y-88733939D01*
X178527004Y-88733936D01*
X178324521Y-88639517D01*
X178324515Y-88639514D01*
X178319611Y-88637228D01*
X178314386Y-88635828D01*
X178314378Y-88635825D01*
X178098577Y-88578002D01*
X178098573Y-88578001D01*
X178093351Y-88576602D01*
X178087963Y-88576130D01*
X178087960Y-88576130D01*
X177865395Y-88556658D01*
X177860000Y-88556186D01*
X177854605Y-88556658D01*
X177632039Y-88576130D01*
X177632034Y-88576130D01*
X177626649Y-88576602D01*
X177621428Y-88578000D01*
X177621422Y-88578002D01*
X177405621Y-88635825D01*
X177405609Y-88635829D01*
X177400389Y-88637228D01*
X177395488Y-88639513D01*
X177395478Y-88639517D01*
X177192995Y-88733936D01*
X177192984Y-88733942D01*
X177188093Y-88736223D01*
X177183670Y-88739319D01*
X177183663Y-88739324D01*
X177000647Y-88867473D01*
X177000637Y-88867480D01*
X176996213Y-88870579D01*
X176992387Y-88874404D01*
X176992381Y-88874410D01*
X176834410Y-89032381D01*
X176834404Y-89032387D01*
X176830579Y-89036213D01*
X176827480Y-89040637D01*
X176827473Y-89040647D01*
X176699324Y-89223663D01*
X176699319Y-89223670D01*
X176696223Y-89228093D01*
X176693942Y-89232984D01*
X176693936Y-89232995D01*
X176599517Y-89435478D01*
X176599513Y-89435488D01*
X176597228Y-89440389D01*
X176595829Y-89445609D01*
X176595825Y-89445621D01*
X176538002Y-89661422D01*
X176538000Y-89661428D01*
X176536602Y-89666649D01*
X176536130Y-89672034D01*
X176536130Y-89672039D01*
X176519640Y-89860521D01*
X176516186Y-89900000D01*
X169679631Y-89900000D01*
X169679631Y-89894883D01*
X169660293Y-89661510D01*
X169658609Y-89651416D01*
X169601120Y-89424397D01*
X169597801Y-89414730D01*
X169503729Y-89200266D01*
X169498867Y-89191283D01*
X169412937Y-89059756D01*
X169404973Y-89052036D01*
X169395591Y-89057960D01*
X168565095Y-89888457D01*
X168558431Y-89900000D01*
X167841568Y-89900000D01*
X167834904Y-89888457D01*
X167004406Y-89057959D01*
X166995026Y-89052036D01*
X166987059Y-89059761D01*
X166901135Y-89191278D01*
X166896269Y-89200268D01*
X166802198Y-89414730D01*
X166798879Y-89424397D01*
X166741390Y-89651416D01*
X166739706Y-89661510D01*
X166720369Y-89894883D01*
X166720369Y-89905117D01*
X165451586Y-89905117D01*
X165454277Y-89824631D01*
X165424118Y-89524838D01*
X165354269Y-89231739D01*
X165245977Y-88950566D01*
X165105686Y-88694566D01*
X167353565Y-88694566D01*
X167360224Y-88706671D01*
X168188457Y-89534904D01*
X168200000Y-89541568D01*
X168211542Y-89534904D01*
X169039773Y-88706672D01*
X169046433Y-88694565D01*
X169038327Y-88683375D01*
X169013558Y-88664096D01*
X169005006Y-88658509D01*
X168799035Y-88547042D01*
X168789682Y-88542940D01*
X168568185Y-88466900D01*
X168558273Y-88464389D01*
X168327284Y-88425844D01*
X168317089Y-88425000D01*
X168082911Y-88425000D01*
X168072715Y-88425844D01*
X167841726Y-88464389D01*
X167831814Y-88466900D01*
X167610317Y-88542940D01*
X167600964Y-88547042D01*
X167394995Y-88658508D01*
X167386440Y-88664097D01*
X167361671Y-88683375D01*
X167353565Y-88694566D01*
X165105686Y-88694566D01*
X165101175Y-88686335D01*
X165068445Y-88641914D01*
X164953208Y-88485513D01*
X164922446Y-88443762D01*
X164712980Y-88227176D01*
X164563281Y-88108960D01*
X164479769Y-88043011D01*
X164479762Y-88043006D01*
X164476515Y-88040442D01*
X164472954Y-88038332D01*
X164472947Y-88038328D01*
X164220831Y-87889000D01*
X164220828Y-87888998D01*
X164217270Y-87886891D01*
X164213471Y-87885280D01*
X164213461Y-87885275D01*
X163943681Y-87770879D01*
X163943678Y-87770878D01*
X163939872Y-87769264D01*
X163935885Y-87768172D01*
X163935877Y-87768169D01*
X163653278Y-87690757D01*
X163653269Y-87690755D01*
X163649271Y-87689660D01*
X163645164Y-87689107D01*
X163645156Y-87689106D01*
X163354754Y-87650051D01*
X163354746Y-87650050D01*
X163350653Y-87649500D01*
X163124756Y-87649500D01*
X163122682Y-87649638D01*
X163122677Y-87649639D01*
X162903498Y-87664311D01*
X162903492Y-87664311D01*
X162899366Y-87664588D01*
X162895309Y-87665412D01*
X162895306Y-87665413D01*
X162608165Y-87723777D01*
X162608162Y-87723777D01*
X162604097Y-87724604D01*
X162600183Y-87725963D01*
X162600176Y-87725965D01*
X162323375Y-87822081D01*
X162323367Y-87822084D01*
X162319463Y-87823440D01*
X162315771Y-87825305D01*
X162315763Y-87825309D01*
X162054242Y-87957461D01*
X162054232Y-87957466D01*
X162050541Y-87959332D01*
X162047130Y-87961672D01*
X162047124Y-87961677D01*
X161805548Y-88127509D01*
X161805534Y-88127519D01*
X161802131Y-88129856D01*
X161799066Y-88132627D01*
X161799056Y-88132636D01*
X161581741Y-88329187D01*
X161581735Y-88329192D01*
X161578667Y-88331968D01*
X161575998Y-88335123D01*
X161575991Y-88335132D01*
X161386810Y-88558896D01*
X161386804Y-88558903D01*
X161384135Y-88562061D01*
X161381912Y-88565542D01*
X161381904Y-88565554D01*
X161224233Y-88812542D01*
X161224229Y-88812549D01*
X161222007Y-88816030D01*
X161220267Y-88819779D01*
X161220264Y-88819785D01*
X161096922Y-89085580D01*
X161096918Y-89085589D01*
X161095177Y-89089342D01*
X161093951Y-89093291D01*
X161093949Y-89093299D01*
X161010565Y-89362105D01*
X161005907Y-89377121D01*
X161005218Y-89381199D01*
X161005218Y-89381204D01*
X160957070Y-89666649D01*
X160955791Y-89674230D01*
X160955653Y-89678353D01*
X160955652Y-89678365D01*
X160945861Y-89971222D01*
X160945861Y-89971231D01*
X160945723Y-89975369D01*
X149400000Y-89975369D01*
X149400000Y-87400000D01*
X156719443Y-87400000D01*
X156719867Y-87405117D01*
X156739211Y-87638572D01*
X156739212Y-87638580D01*
X156739636Y-87643692D01*
X156740893Y-87648659D01*
X156740895Y-87648666D01*
X156798405Y-87875765D01*
X156799664Y-87880736D01*
X156801724Y-87885432D01*
X156895828Y-88099970D01*
X156895831Y-88099976D01*
X156897889Y-88104667D01*
X156900689Y-88108953D01*
X156900693Y-88108960D01*
X156979874Y-88230155D01*
X157031632Y-88309377D01*
X157035106Y-88313150D01*
X157035107Y-88313152D01*
X157185672Y-88476709D01*
X157197246Y-88489281D01*
X157390212Y-88639473D01*
X157394719Y-88641912D01*
X157394722Y-88641914D01*
X157425387Y-88658509D01*
X157605267Y-88755855D01*
X157836545Y-88835252D01*
X158077737Y-88875500D01*
X158317130Y-88875500D01*
X158322263Y-88875500D01*
X158563455Y-88835252D01*
X158794733Y-88755855D01*
X159009788Y-88639473D01*
X159202754Y-88489281D01*
X159368368Y-88309377D01*
X159502111Y-88104667D01*
X159600336Y-87880736D01*
X159660364Y-87643692D01*
X159680557Y-87400000D01*
X159663984Y-87200000D01*
X178494540Y-87200000D01*
X178495219Y-87206460D01*
X178513646Y-87381795D01*
X178513647Y-87381803D01*
X178514326Y-87388256D01*
X178516331Y-87394428D01*
X178516333Y-87394435D01*
X178570813Y-87562105D01*
X178572821Y-87568284D01*
X178576068Y-87573908D01*
X178576069Y-87573910D01*
X178662594Y-87723777D01*
X178667467Y-87732216D01*
X178671811Y-87737041D01*
X178671813Y-87737043D01*
X178778975Y-87856058D01*
X178794129Y-87872888D01*
X178799387Y-87876708D01*
X178799388Y-87876709D01*
X178816305Y-87889000D01*
X178947270Y-87984151D01*
X179120197Y-88061144D01*
X179305354Y-88100500D01*
X179488143Y-88100500D01*
X179494646Y-88100500D01*
X179679803Y-88061144D01*
X179852730Y-87984151D01*
X180005871Y-87872888D01*
X180132533Y-87732216D01*
X180227179Y-87568284D01*
X180282069Y-87399348D01*
X180315116Y-87347276D01*
X180369162Y-87317564D01*
X180430838Y-87317564D01*
X180484884Y-87347276D01*
X180517930Y-87399348D01*
X180533333Y-87446753D01*
X180570038Y-87559721D01*
X180572821Y-87568284D01*
X180576068Y-87573908D01*
X180576069Y-87573910D01*
X180662594Y-87723777D01*
X180667467Y-87732216D01*
X180671811Y-87737041D01*
X180671813Y-87737043D01*
X180778975Y-87856058D01*
X180794129Y-87872888D01*
X180799387Y-87876708D01*
X180799388Y-87876709D01*
X180816305Y-87889000D01*
X180947270Y-87984151D01*
X181120197Y-88061144D01*
X181305354Y-88100500D01*
X181488143Y-88100500D01*
X181494646Y-88100500D01*
X181679803Y-88061144D01*
X181852730Y-87984151D01*
X182005871Y-87872888D01*
X182071500Y-87800000D01*
X192894540Y-87800000D01*
X192895219Y-87806460D01*
X192913646Y-87981795D01*
X192913647Y-87981803D01*
X192914326Y-87988256D01*
X192916331Y-87994428D01*
X192916333Y-87994435D01*
X192970813Y-88162105D01*
X192972821Y-88168284D01*
X192976068Y-88173908D01*
X192976069Y-88173910D01*
X193062313Y-88323290D01*
X193067467Y-88332216D01*
X193194129Y-88472888D01*
X193347270Y-88584151D01*
X193520197Y-88661144D01*
X193705354Y-88700500D01*
X193888143Y-88700500D01*
X193894646Y-88700500D01*
X194079803Y-88661144D01*
X194252730Y-88584151D01*
X194405871Y-88472888D01*
X194532533Y-88332216D01*
X194627179Y-88168284D01*
X194685674Y-87988256D01*
X194705460Y-87800000D01*
X194685674Y-87611744D01*
X194627179Y-87431716D01*
X194532533Y-87267784D01*
X194477316Y-87206460D01*
X194410220Y-87131942D01*
X194410219Y-87131941D01*
X194405871Y-87127112D01*
X194400613Y-87123292D01*
X194400611Y-87123290D01*
X194257988Y-87019669D01*
X194257987Y-87019668D01*
X194252730Y-87015849D01*
X194246792Y-87013205D01*
X194085745Y-86941501D01*
X194085740Y-86941499D01*
X194079803Y-86938856D01*
X194073444Y-86937504D01*
X194073440Y-86937503D01*
X193901008Y-86900852D01*
X193901005Y-86900851D01*
X193894646Y-86899500D01*
X193705354Y-86899500D01*
X193698995Y-86900851D01*
X193698991Y-86900852D01*
X193526559Y-86937503D01*
X193526552Y-86937505D01*
X193520197Y-86938856D01*
X193514262Y-86941498D01*
X193514254Y-86941501D01*
X193353207Y-87013205D01*
X193353202Y-87013207D01*
X193347270Y-87015849D01*
X193342016Y-87019665D01*
X193342011Y-87019669D01*
X193199388Y-87123290D01*
X193199381Y-87123295D01*
X193194129Y-87127112D01*
X193189784Y-87131937D01*
X193189779Y-87131942D01*
X193071813Y-87262956D01*
X193071808Y-87262962D01*
X193067467Y-87267784D01*
X193064222Y-87273404D01*
X193064218Y-87273410D01*
X192976069Y-87426089D01*
X192976066Y-87426094D01*
X192972821Y-87431716D01*
X192970815Y-87437888D01*
X192970813Y-87437894D01*
X192916333Y-87605564D01*
X192916331Y-87605573D01*
X192914326Y-87611744D01*
X192913648Y-87618194D01*
X192913646Y-87618204D01*
X192901157Y-87737043D01*
X192894540Y-87800000D01*
X182071500Y-87800000D01*
X182132533Y-87732216D01*
X182227179Y-87568284D01*
X182285674Y-87388256D01*
X182305460Y-87200000D01*
X182285674Y-87011744D01*
X182227179Y-86831716D01*
X182132533Y-86667784D01*
X182005871Y-86527112D01*
X182000613Y-86523292D01*
X182000611Y-86523290D01*
X181857988Y-86419669D01*
X181857987Y-86419668D01*
X181852730Y-86415849D01*
X181846792Y-86413205D01*
X181685745Y-86341501D01*
X181685740Y-86341499D01*
X181679803Y-86338856D01*
X181673444Y-86337504D01*
X181673440Y-86337503D01*
X181501008Y-86300852D01*
X181501005Y-86300851D01*
X181494646Y-86299500D01*
X181305354Y-86299500D01*
X181298995Y-86300851D01*
X181298991Y-86300852D01*
X181126559Y-86337503D01*
X181126552Y-86337505D01*
X181120197Y-86338856D01*
X181114262Y-86341498D01*
X181114254Y-86341501D01*
X180953207Y-86413205D01*
X180953202Y-86413207D01*
X180947270Y-86415849D01*
X180942016Y-86419665D01*
X180942011Y-86419669D01*
X180799388Y-86523290D01*
X180799381Y-86523295D01*
X180794129Y-86527112D01*
X180789784Y-86531937D01*
X180789779Y-86531942D01*
X180671813Y-86662956D01*
X180671808Y-86662962D01*
X180667467Y-86667784D01*
X180664222Y-86673404D01*
X180664218Y-86673410D01*
X180576069Y-86826089D01*
X180576066Y-86826094D01*
X180572821Y-86831716D01*
X180570815Y-86837888D01*
X180570813Y-86837894D01*
X180517931Y-87000649D01*
X180484884Y-87052723D01*
X180430838Y-87082435D01*
X180369162Y-87082435D01*
X180315116Y-87052723D01*
X180282069Y-87000649D01*
X180281212Y-86998013D01*
X180227179Y-86831716D01*
X180132533Y-86667784D01*
X180005871Y-86527112D01*
X180000613Y-86523292D01*
X180000611Y-86523290D01*
X179857988Y-86419669D01*
X179857987Y-86419668D01*
X179852730Y-86415849D01*
X179846792Y-86413205D01*
X179685745Y-86341501D01*
X179685740Y-86341499D01*
X179679803Y-86338856D01*
X179673444Y-86337504D01*
X179673440Y-86337503D01*
X179501008Y-86300852D01*
X179501005Y-86300851D01*
X179494646Y-86299500D01*
X179305354Y-86299500D01*
X179298995Y-86300851D01*
X179298991Y-86300852D01*
X179126559Y-86337503D01*
X179126552Y-86337505D01*
X179120197Y-86338856D01*
X179114262Y-86341498D01*
X179114254Y-86341501D01*
X178953207Y-86413205D01*
X178953202Y-86413207D01*
X178947270Y-86415849D01*
X178942016Y-86419665D01*
X178942011Y-86419669D01*
X178799388Y-86523290D01*
X178799381Y-86523295D01*
X178794129Y-86527112D01*
X178789784Y-86531937D01*
X178789779Y-86531942D01*
X178671813Y-86662956D01*
X178671808Y-86662962D01*
X178667467Y-86667784D01*
X178664222Y-86673404D01*
X178664218Y-86673410D01*
X178576069Y-86826089D01*
X178576066Y-86826094D01*
X178572821Y-86831716D01*
X178570815Y-86837888D01*
X178570813Y-86837894D01*
X178516333Y-87005564D01*
X178516331Y-87005573D01*
X178514326Y-87011744D01*
X178513648Y-87018194D01*
X178513646Y-87018204D01*
X178501693Y-87131942D01*
X178494540Y-87200000D01*
X159663984Y-87200000D01*
X159660364Y-87156308D01*
X159600336Y-86919264D01*
X159502111Y-86695333D01*
X159495226Y-86684795D01*
X159371175Y-86494920D01*
X159368368Y-86490623D01*
X159303050Y-86419669D01*
X159206222Y-86314486D01*
X159206220Y-86314484D01*
X159202754Y-86310719D01*
X159144522Y-86265395D01*
X215072800Y-86265395D01*
X215090506Y-86467784D01*
X215092380Y-86478415D01*
X215144965Y-86674661D01*
X215148653Y-86684795D01*
X215234516Y-86868928D01*
X215239912Y-86878273D01*
X215268472Y-86919060D01*
X215276583Y-86926492D01*
X215285865Y-86920579D01*
X215934903Y-86271541D01*
X215941567Y-86259999D01*
X216658431Y-86259999D01*
X216665095Y-86271541D01*
X217314133Y-86920579D01*
X217323415Y-86926492D01*
X217331526Y-86919061D01*
X217360088Y-86878272D01*
X217365483Y-86868928D01*
X217451346Y-86684795D01*
X217455034Y-86674661D01*
X217507619Y-86478415D01*
X217509493Y-86467784D01*
X217527200Y-86265395D01*
X217527200Y-86254605D01*
X217509493Y-86052215D01*
X217507619Y-86041584D01*
X217455034Y-85845338D01*
X217451346Y-85835204D01*
X217365482Y-85651069D01*
X217360091Y-85641731D01*
X217331525Y-85600936D01*
X217323416Y-85593505D01*
X217314133Y-85599419D01*
X216665095Y-86248456D01*
X216658431Y-86259999D01*
X215941567Y-86259999D01*
X215934903Y-86248456D01*
X215285862Y-85599416D01*
X215276583Y-85593505D01*
X215268472Y-85600938D01*
X215239913Y-85641724D01*
X215234515Y-85651074D01*
X215148653Y-85835204D01*
X215144965Y-85845338D01*
X215092380Y-86041584D01*
X215090506Y-86052215D01*
X215072800Y-86254605D01*
X215072800Y-86265395D01*
X159144522Y-86265395D01*
X159009788Y-86160527D01*
X159005283Y-86158089D01*
X159005277Y-86158085D01*
X158868795Y-86084225D01*
X158794733Y-86044145D01*
X158783413Y-86040259D01*
X158568304Y-85966412D01*
X158568296Y-85966410D01*
X158563455Y-85964748D01*
X158558408Y-85963905D01*
X158558401Y-85963904D01*
X158327325Y-85925344D01*
X158327316Y-85925343D01*
X158322263Y-85924500D01*
X158077737Y-85924500D01*
X158072684Y-85925343D01*
X158072674Y-85925344D01*
X157841598Y-85963904D01*
X157841588Y-85963906D01*
X157836545Y-85964748D01*
X157831705Y-85966409D01*
X157831695Y-85966412D01*
X157610119Y-86042479D01*
X157610115Y-86042480D01*
X157605267Y-86044145D01*
X157600759Y-86046584D01*
X157600758Y-86046585D01*
X157394722Y-86158085D01*
X157394710Y-86158092D01*
X157390212Y-86160527D01*
X157386169Y-86163673D01*
X157386164Y-86163677D01*
X157201287Y-86307573D01*
X157201281Y-86307577D01*
X157197246Y-86310719D01*
X157193784Y-86314478D01*
X157193777Y-86314486D01*
X157035107Y-86486847D01*
X157035101Y-86486854D01*
X157031632Y-86490623D01*
X157028828Y-86494914D01*
X157028824Y-86494920D01*
X156900693Y-86691039D01*
X156900686Y-86691051D01*
X156897889Y-86695333D01*
X156895834Y-86700017D01*
X156895828Y-86700029D01*
X156817644Y-86878273D01*
X156799664Y-86919264D01*
X156798406Y-86924229D01*
X156798405Y-86924234D01*
X156740895Y-87151333D01*
X156740893Y-87151342D01*
X156739636Y-87156308D01*
X156739212Y-87161417D01*
X156739211Y-87161427D01*
X156720416Y-87388256D01*
X156719443Y-87400000D01*
X149400000Y-87400000D01*
X149400000Y-85236583D01*
X215633505Y-85236583D01*
X215639416Y-85245862D01*
X216288457Y-85894903D01*
X216300000Y-85901567D01*
X216311542Y-85894903D01*
X216960579Y-85245865D01*
X216966492Y-85236583D01*
X216959060Y-85228472D01*
X216918273Y-85199912D01*
X216908928Y-85194516D01*
X216724795Y-85108653D01*
X216714661Y-85104965D01*
X216518415Y-85052380D01*
X216507784Y-85050506D01*
X216305395Y-85032800D01*
X216294605Y-85032800D01*
X216092215Y-85050506D01*
X216081584Y-85052380D01*
X215885338Y-85104965D01*
X215875204Y-85108653D01*
X215691074Y-85194515D01*
X215681724Y-85199913D01*
X215640938Y-85228472D01*
X215633505Y-85236583D01*
X149400000Y-85236583D01*
X149400000Y-83200000D01*
X178494540Y-83200000D01*
X178495219Y-83206460D01*
X178513646Y-83381795D01*
X178513647Y-83381803D01*
X178514326Y-83388256D01*
X178516331Y-83394428D01*
X178516333Y-83394435D01*
X178531717Y-83441781D01*
X178572821Y-83568284D01*
X178667467Y-83732216D01*
X178794129Y-83872888D01*
X178947270Y-83984151D01*
X179120197Y-84061144D01*
X179305354Y-84100500D01*
X179488143Y-84100500D01*
X179494646Y-84100500D01*
X179679803Y-84061144D01*
X179852730Y-83984151D01*
X180005871Y-83872888D01*
X180132533Y-83732216D01*
X180227179Y-83568284D01*
X180282069Y-83399348D01*
X180315116Y-83347276D01*
X180369162Y-83317564D01*
X180430838Y-83317564D01*
X180484884Y-83347276D01*
X180517930Y-83399348D01*
X180572821Y-83568284D01*
X180667467Y-83732216D01*
X180794129Y-83872888D01*
X180947270Y-83984151D01*
X181120197Y-84061144D01*
X181305354Y-84100500D01*
X181488143Y-84100500D01*
X181494646Y-84100500D01*
X181679803Y-84061144D01*
X181852730Y-83984151D01*
X182005871Y-83872888D01*
X182132533Y-83732216D01*
X182139586Y-83720000D01*
X219367308Y-83720000D01*
X219367597Y-83724225D01*
X219385556Y-83986794D01*
X219386054Y-83994062D01*
X219386915Y-83998209D01*
X219386917Y-83998218D01*
X219407891Y-84099147D01*
X219441944Y-84263018D01*
X219443362Y-84267010D01*
X219443365Y-84267018D01*
X219532515Y-84517862D01*
X219533936Y-84521859D01*
X219660317Y-84765762D01*
X219662763Y-84769227D01*
X219816287Y-84986723D01*
X219816291Y-84986728D01*
X219818732Y-84990186D01*
X220006231Y-85190948D01*
X220009512Y-85193617D01*
X220009515Y-85193620D01*
X220017249Y-85199912D01*
X220219320Y-85364309D01*
X220454031Y-85507039D01*
X220643226Y-85589218D01*
X220670206Y-85600938D01*
X220705990Y-85616481D01*
X220914317Y-85674851D01*
X220966426Y-85689452D01*
X220966428Y-85689452D01*
X220970506Y-85690595D01*
X221242649Y-85728000D01*
X221513114Y-85728000D01*
X221517351Y-85728000D01*
X221789494Y-85690595D01*
X222054010Y-85616481D01*
X222305969Y-85507039D01*
X222540680Y-85364309D01*
X222753769Y-85190948D01*
X222941268Y-84990186D01*
X223099683Y-84765762D01*
X223226064Y-84521859D01*
X223318056Y-84263018D01*
X223373946Y-83994062D01*
X223392692Y-83720000D01*
X223373946Y-83445938D01*
X223318056Y-83176982D01*
X223226064Y-82918141D01*
X223099683Y-82674238D01*
X222993133Y-82523290D01*
X222943712Y-82453276D01*
X222943709Y-82453273D01*
X222941268Y-82449814D01*
X222753769Y-82249052D01*
X222750487Y-82246382D01*
X222750484Y-82246379D01*
X222646897Y-82162105D01*
X222540680Y-82075691D01*
X222537056Y-82073487D01*
X222537053Y-82073485D01*
X222309587Y-81935161D01*
X222309585Y-81935160D01*
X222305969Y-81932961D01*
X222270522Y-81917564D01*
X222057891Y-81825204D01*
X222057881Y-81825200D01*
X222054010Y-81823519D01*
X222049938Y-81822378D01*
X221793573Y-81750547D01*
X221793560Y-81750544D01*
X221789494Y-81749405D01*
X221785307Y-81748829D01*
X221785295Y-81748827D01*
X221521548Y-81712576D01*
X221521535Y-81712575D01*
X221517351Y-81712000D01*
X221242649Y-81712000D01*
X221238465Y-81712575D01*
X221238451Y-81712576D01*
X220974704Y-81748827D01*
X220974689Y-81748829D01*
X220970506Y-81749405D01*
X220966442Y-81750543D01*
X220966426Y-81750547D01*
X220710061Y-81822378D01*
X220710056Y-81822379D01*
X220705990Y-81823519D01*
X220702123Y-81825198D01*
X220702108Y-81825204D01*
X220457914Y-81931274D01*
X220457909Y-81931276D01*
X220454031Y-81932961D01*
X220450420Y-81935156D01*
X220450412Y-81935161D01*
X220222946Y-82073485D01*
X220222935Y-82073492D01*
X220219320Y-82075691D01*
X220216030Y-82078367D01*
X220216028Y-82078369D01*
X220009515Y-82246379D01*
X220009504Y-82246388D01*
X220006231Y-82249052D01*
X220003352Y-82252134D01*
X220003343Y-82252143D01*
X219821620Y-82446721D01*
X219821615Y-82446726D01*
X219818732Y-82449814D01*
X219816296Y-82453264D01*
X219816287Y-82453276D01*
X219662763Y-82670772D01*
X219662759Y-82670777D01*
X219660317Y-82674238D01*
X219658371Y-82677992D01*
X219658367Y-82678000D01*
X219535885Y-82914378D01*
X219535880Y-82914388D01*
X219533936Y-82918141D01*
X219532519Y-82922126D01*
X219532515Y-82922137D01*
X219443365Y-83172981D01*
X219443361Y-83172993D01*
X219441944Y-83176982D01*
X219441081Y-83181132D01*
X219441080Y-83181138D01*
X219386917Y-83441781D01*
X219386915Y-83441792D01*
X219386054Y-83445938D01*
X219385765Y-83450162D01*
X219385764Y-83450170D01*
X219367852Y-83712037D01*
X219367308Y-83720000D01*
X182139586Y-83720000D01*
X182227179Y-83568284D01*
X182285674Y-83388256D01*
X182305460Y-83200000D01*
X182285674Y-83011744D01*
X182227179Y-82831716D01*
X182132533Y-82667784D01*
X182005871Y-82527112D01*
X182000613Y-82523292D01*
X182000611Y-82523290D01*
X181857988Y-82419669D01*
X181857987Y-82419668D01*
X181852730Y-82415849D01*
X181846792Y-82413205D01*
X181685745Y-82341501D01*
X181685740Y-82341499D01*
X181679803Y-82338856D01*
X181673444Y-82337504D01*
X181673440Y-82337503D01*
X181501008Y-82300852D01*
X181501005Y-82300851D01*
X181494646Y-82299500D01*
X181305354Y-82299500D01*
X181298995Y-82300851D01*
X181298991Y-82300852D01*
X181126559Y-82337503D01*
X181126552Y-82337505D01*
X181120197Y-82338856D01*
X181114262Y-82341498D01*
X181114254Y-82341501D01*
X180953207Y-82413205D01*
X180953202Y-82413207D01*
X180947270Y-82415849D01*
X180942016Y-82419665D01*
X180942011Y-82419669D01*
X180799388Y-82523290D01*
X180799381Y-82523295D01*
X180794129Y-82527112D01*
X180789784Y-82531937D01*
X180789779Y-82531942D01*
X180671813Y-82662956D01*
X180671808Y-82662962D01*
X180667467Y-82667784D01*
X180664222Y-82673404D01*
X180664218Y-82673410D01*
X180576069Y-82826089D01*
X180576066Y-82826094D01*
X180572821Y-82831716D01*
X180570815Y-82837888D01*
X180570813Y-82837894D01*
X180517931Y-83000649D01*
X180484884Y-83052723D01*
X180430838Y-83082435D01*
X180369162Y-83082435D01*
X180315116Y-83052723D01*
X180282069Y-83000649D01*
X180255260Y-82918141D01*
X180227179Y-82831716D01*
X180132533Y-82667784D01*
X180005871Y-82527112D01*
X180000613Y-82523292D01*
X180000611Y-82523290D01*
X179857988Y-82419669D01*
X179857987Y-82419668D01*
X179852730Y-82415849D01*
X179846792Y-82413205D01*
X179685745Y-82341501D01*
X179685740Y-82341499D01*
X179679803Y-82338856D01*
X179673444Y-82337504D01*
X179673440Y-82337503D01*
X179501008Y-82300852D01*
X179501005Y-82300851D01*
X179494646Y-82299500D01*
X179305354Y-82299500D01*
X179298995Y-82300851D01*
X179298991Y-82300852D01*
X179126559Y-82337503D01*
X179126552Y-82337505D01*
X179120197Y-82338856D01*
X179114262Y-82341498D01*
X179114254Y-82341501D01*
X178953207Y-82413205D01*
X178953202Y-82413207D01*
X178947270Y-82415849D01*
X178942016Y-82419665D01*
X178942011Y-82419669D01*
X178799388Y-82523290D01*
X178799381Y-82523295D01*
X178794129Y-82527112D01*
X178789784Y-82531937D01*
X178789779Y-82531942D01*
X178671813Y-82662956D01*
X178671808Y-82662962D01*
X178667467Y-82667784D01*
X178664222Y-82673404D01*
X178664218Y-82673410D01*
X178576069Y-82826089D01*
X178576066Y-82826094D01*
X178572821Y-82831716D01*
X178570815Y-82837888D01*
X178570813Y-82837894D01*
X178516333Y-83005564D01*
X178516331Y-83005573D01*
X178514326Y-83011744D01*
X178513648Y-83018194D01*
X178513646Y-83018204D01*
X178497380Y-83172981D01*
X178494540Y-83200000D01*
X149400000Y-83200000D01*
X149400000Y-82200000D01*
X174694540Y-82200000D01*
X174695219Y-82206460D01*
X174713646Y-82381795D01*
X174713647Y-82381803D01*
X174714326Y-82388256D01*
X174716331Y-82394428D01*
X174716333Y-82394435D01*
X174770813Y-82562105D01*
X174772821Y-82568284D01*
X174776068Y-82573908D01*
X174776069Y-82573910D01*
X174848374Y-82699147D01*
X174867467Y-82732216D01*
X174994129Y-82872888D01*
X175147270Y-82984151D01*
X175320197Y-83061144D01*
X175505354Y-83100500D01*
X175688143Y-83100500D01*
X175694646Y-83100500D01*
X175879803Y-83061144D01*
X176052730Y-82984151D01*
X176205871Y-82872888D01*
X176332533Y-82732216D01*
X176427179Y-82568284D01*
X176485674Y-82388256D01*
X176505460Y-82200000D01*
X176485674Y-82011744D01*
X176427179Y-81831716D01*
X176408868Y-81800000D01*
X189694540Y-81800000D01*
X189695219Y-81806460D01*
X189713646Y-81981795D01*
X189713647Y-81981803D01*
X189714326Y-81988256D01*
X189716331Y-81994428D01*
X189716333Y-81994435D01*
X189770813Y-82162105D01*
X189772821Y-82168284D01*
X189776068Y-82173908D01*
X189776069Y-82173910D01*
X189787402Y-82193540D01*
X189867467Y-82332216D01*
X189871811Y-82337041D01*
X189871813Y-82337043D01*
X189875827Y-82341501D01*
X189994129Y-82472888D01*
X190147270Y-82584151D01*
X190320197Y-82661144D01*
X190505354Y-82700500D01*
X190688143Y-82700500D01*
X190694646Y-82700500D01*
X190879803Y-82661144D01*
X191052730Y-82584151D01*
X191205871Y-82472888D01*
X191332533Y-82332216D01*
X191427179Y-82168284D01*
X191482069Y-81999348D01*
X191515116Y-81947276D01*
X191569162Y-81917564D01*
X191630838Y-81917564D01*
X191684884Y-81947276D01*
X191717930Y-81999348D01*
X191772821Y-82168284D01*
X191776068Y-82173908D01*
X191776069Y-82173910D01*
X191787402Y-82193540D01*
X191867467Y-82332216D01*
X191871811Y-82337041D01*
X191871813Y-82337043D01*
X191875827Y-82341501D01*
X191994129Y-82472888D01*
X192147270Y-82584151D01*
X192320197Y-82661144D01*
X192505354Y-82700500D01*
X192688143Y-82700500D01*
X192694646Y-82700500D01*
X192879803Y-82661144D01*
X193052730Y-82584151D01*
X193205871Y-82472888D01*
X193332533Y-82332216D01*
X193427179Y-82168284D01*
X193485674Y-81988256D01*
X193505460Y-81800000D01*
X193485674Y-81611744D01*
X193427179Y-81431716D01*
X193332533Y-81267784D01*
X193205871Y-81127112D01*
X193200613Y-81123292D01*
X193200611Y-81123290D01*
X193057988Y-81019669D01*
X193057987Y-81019668D01*
X193052730Y-81015849D01*
X193046792Y-81013205D01*
X192885745Y-80941501D01*
X192885740Y-80941499D01*
X192879803Y-80938856D01*
X192873444Y-80937504D01*
X192873440Y-80937503D01*
X192701008Y-80900852D01*
X192701005Y-80900851D01*
X192694646Y-80899500D01*
X192505354Y-80899500D01*
X192498995Y-80900851D01*
X192498991Y-80900852D01*
X192326559Y-80937503D01*
X192326552Y-80937505D01*
X192320197Y-80938856D01*
X192314262Y-80941498D01*
X192314254Y-80941501D01*
X192153207Y-81013205D01*
X192153202Y-81013207D01*
X192147270Y-81015849D01*
X192142016Y-81019665D01*
X192142011Y-81019669D01*
X191999388Y-81123290D01*
X191999381Y-81123295D01*
X191994129Y-81127112D01*
X191989784Y-81131937D01*
X191989779Y-81131942D01*
X191871813Y-81262956D01*
X191871808Y-81262962D01*
X191867467Y-81267784D01*
X191864222Y-81273404D01*
X191864218Y-81273410D01*
X191776069Y-81426089D01*
X191776066Y-81426094D01*
X191772821Y-81431716D01*
X191770815Y-81437888D01*
X191770813Y-81437894D01*
X191717931Y-81600649D01*
X191684884Y-81652723D01*
X191630838Y-81682435D01*
X191569162Y-81682435D01*
X191515116Y-81652723D01*
X191482069Y-81600649D01*
X191481212Y-81598013D01*
X191427179Y-81431716D01*
X191332533Y-81267784D01*
X191205871Y-81127112D01*
X191200613Y-81123292D01*
X191200611Y-81123290D01*
X191057988Y-81019669D01*
X191057987Y-81019668D01*
X191052730Y-81015849D01*
X191046792Y-81013205D01*
X190885745Y-80941501D01*
X190885740Y-80941499D01*
X190879803Y-80938856D01*
X190873444Y-80937504D01*
X190873440Y-80937503D01*
X190701008Y-80900852D01*
X190701005Y-80900851D01*
X190694646Y-80899500D01*
X190505354Y-80899500D01*
X190498995Y-80900851D01*
X190498991Y-80900852D01*
X190326559Y-80937503D01*
X190326552Y-80937505D01*
X190320197Y-80938856D01*
X190314262Y-80941498D01*
X190314254Y-80941501D01*
X190153207Y-81013205D01*
X190153202Y-81013207D01*
X190147270Y-81015849D01*
X190142016Y-81019665D01*
X190142011Y-81019669D01*
X189999388Y-81123290D01*
X189999381Y-81123295D01*
X189994129Y-81127112D01*
X189989784Y-81131937D01*
X189989779Y-81131942D01*
X189871813Y-81262956D01*
X189871808Y-81262962D01*
X189867467Y-81267784D01*
X189864222Y-81273404D01*
X189864218Y-81273410D01*
X189776069Y-81426089D01*
X189776066Y-81426094D01*
X189772821Y-81431716D01*
X189770815Y-81437888D01*
X189770813Y-81437894D01*
X189716333Y-81605564D01*
X189716331Y-81605573D01*
X189714326Y-81611744D01*
X189713648Y-81618194D01*
X189713646Y-81618204D01*
X189695962Y-81786464D01*
X189694540Y-81800000D01*
X176408868Y-81800000D01*
X176332533Y-81667784D01*
X176205871Y-81527112D01*
X176200613Y-81523292D01*
X176200611Y-81523290D01*
X176057988Y-81419669D01*
X176057987Y-81419668D01*
X176052730Y-81415849D01*
X176046792Y-81413205D01*
X175885745Y-81341501D01*
X175885740Y-81341499D01*
X175879803Y-81338856D01*
X175873444Y-81337504D01*
X175873440Y-81337503D01*
X175701008Y-81300852D01*
X175701005Y-81300851D01*
X175694646Y-81299500D01*
X175505354Y-81299500D01*
X175498995Y-81300851D01*
X175498991Y-81300852D01*
X175326559Y-81337503D01*
X175326552Y-81337505D01*
X175320197Y-81338856D01*
X175314262Y-81341498D01*
X175314254Y-81341501D01*
X175153207Y-81413205D01*
X175153202Y-81413207D01*
X175147270Y-81415849D01*
X175142016Y-81419665D01*
X175142011Y-81419669D01*
X174999388Y-81523290D01*
X174999381Y-81523295D01*
X174994129Y-81527112D01*
X174989784Y-81531937D01*
X174989779Y-81531942D01*
X174871813Y-81662956D01*
X174871808Y-81662962D01*
X174867467Y-81667784D01*
X174864222Y-81673404D01*
X174864218Y-81673410D01*
X174776069Y-81826089D01*
X174776066Y-81826094D01*
X174772821Y-81831716D01*
X174770815Y-81837888D01*
X174770813Y-81837894D01*
X174716333Y-82005564D01*
X174716331Y-82005573D01*
X174714326Y-82011744D01*
X174713648Y-82018194D01*
X174713646Y-82018204D01*
X174698523Y-82162105D01*
X174694540Y-82200000D01*
X149400000Y-82200000D01*
X149400000Y-80600000D01*
X158494540Y-80600000D01*
X158495219Y-80606460D01*
X158513646Y-80781795D01*
X158513647Y-80781803D01*
X158514326Y-80788256D01*
X158516331Y-80794428D01*
X158516333Y-80794435D01*
X158570813Y-80962105D01*
X158572821Y-80968284D01*
X158576068Y-80973908D01*
X158576069Y-80973910D01*
X158662313Y-81123290D01*
X158667467Y-81132216D01*
X158794129Y-81272888D01*
X158947270Y-81384151D01*
X159120197Y-81461144D01*
X159305354Y-81500500D01*
X159488143Y-81500500D01*
X159494646Y-81500500D01*
X159679803Y-81461144D01*
X159852730Y-81384151D01*
X160005871Y-81272888D01*
X160132533Y-81132216D01*
X160227179Y-80968284D01*
X160285674Y-80788256D01*
X160305460Y-80600000D01*
X160285674Y-80411744D01*
X160227179Y-80231716D01*
X160132533Y-80067784D01*
X160060925Y-79988256D01*
X160010220Y-79931942D01*
X160010219Y-79931941D01*
X160005871Y-79927112D01*
X160000613Y-79923292D01*
X160000611Y-79923290D01*
X159857988Y-79819669D01*
X159857987Y-79819668D01*
X159852730Y-79815849D01*
X159846792Y-79813205D01*
X159817134Y-79800000D01*
X177694540Y-79800000D01*
X177695219Y-79806460D01*
X177713646Y-79981795D01*
X177713647Y-79981803D01*
X177714326Y-79988256D01*
X177716331Y-79994428D01*
X177716333Y-79994435D01*
X177740166Y-80067784D01*
X177772821Y-80168284D01*
X177776068Y-80173908D01*
X177776069Y-80173910D01*
X177806194Y-80226089D01*
X177867467Y-80332216D01*
X177871811Y-80337041D01*
X177871813Y-80337043D01*
X177944891Y-80418204D01*
X177994129Y-80472888D01*
X178147270Y-80584151D01*
X178320197Y-80661144D01*
X178505354Y-80700500D01*
X178688143Y-80700500D01*
X178694646Y-80700500D01*
X178879803Y-80661144D01*
X179052730Y-80584151D01*
X179205871Y-80472888D01*
X179332533Y-80332216D01*
X179427179Y-80168284D01*
X179485674Y-79988256D01*
X179505460Y-79800000D01*
X179485674Y-79611744D01*
X179427179Y-79431716D01*
X179332533Y-79267784D01*
X179205871Y-79127112D01*
X179200613Y-79123292D01*
X179200611Y-79123290D01*
X179057988Y-79019669D01*
X179057987Y-79019668D01*
X179052730Y-79015849D01*
X179046792Y-79013205D01*
X178885745Y-78941501D01*
X178885740Y-78941499D01*
X178879803Y-78938856D01*
X178873444Y-78937504D01*
X178873440Y-78937503D01*
X178701008Y-78900852D01*
X178701005Y-78900851D01*
X178694646Y-78899500D01*
X178505354Y-78899500D01*
X178498995Y-78900851D01*
X178498991Y-78900852D01*
X178326559Y-78937503D01*
X178326552Y-78937505D01*
X178320197Y-78938856D01*
X178314262Y-78941498D01*
X178314254Y-78941501D01*
X178153207Y-79013205D01*
X178153202Y-79013207D01*
X178147270Y-79015849D01*
X178142016Y-79019665D01*
X178142011Y-79019669D01*
X177999388Y-79123290D01*
X177999381Y-79123295D01*
X177994129Y-79127112D01*
X177989784Y-79131937D01*
X177989779Y-79131942D01*
X177871813Y-79262956D01*
X177871808Y-79262962D01*
X177867467Y-79267784D01*
X177864222Y-79273404D01*
X177864218Y-79273410D01*
X177776069Y-79426089D01*
X177776066Y-79426094D01*
X177772821Y-79431716D01*
X177770815Y-79437888D01*
X177770813Y-79437894D01*
X177716333Y-79605564D01*
X177716331Y-79605573D01*
X177714326Y-79611744D01*
X177713648Y-79618194D01*
X177713646Y-79618204D01*
X177700966Y-79738856D01*
X177694540Y-79800000D01*
X159817134Y-79800000D01*
X159685745Y-79741501D01*
X159685740Y-79741499D01*
X159679803Y-79738856D01*
X159673444Y-79737504D01*
X159673440Y-79737503D01*
X159501008Y-79700852D01*
X159501005Y-79700851D01*
X159494646Y-79699500D01*
X159305354Y-79699500D01*
X159298995Y-79700851D01*
X159298991Y-79700852D01*
X159126559Y-79737503D01*
X159126552Y-79737505D01*
X159120197Y-79738856D01*
X159114262Y-79741498D01*
X159114254Y-79741501D01*
X158953207Y-79813205D01*
X158953202Y-79813207D01*
X158947270Y-79815849D01*
X158942016Y-79819665D01*
X158942011Y-79819669D01*
X158799388Y-79923290D01*
X158799381Y-79923295D01*
X158794129Y-79927112D01*
X158789784Y-79931937D01*
X158789779Y-79931942D01*
X158671813Y-80062956D01*
X158671808Y-80062962D01*
X158667467Y-80067784D01*
X158664222Y-80073404D01*
X158664218Y-80073410D01*
X158576069Y-80226089D01*
X158576066Y-80226094D01*
X158572821Y-80231716D01*
X158570815Y-80237888D01*
X158570813Y-80237894D01*
X158516333Y-80405564D01*
X158516331Y-80405573D01*
X158514326Y-80411744D01*
X158513648Y-80418194D01*
X158513646Y-80418204D01*
X158496607Y-80580330D01*
X158494540Y-80600000D01*
X149400000Y-80600000D01*
X149400000Y-77800000D01*
X173694540Y-77800000D01*
X173695219Y-77806460D01*
X173713646Y-77981795D01*
X173713647Y-77981803D01*
X173714326Y-77988256D01*
X173716331Y-77994428D01*
X173716333Y-77994435D01*
X173762670Y-78137043D01*
X173772821Y-78168284D01*
X173867467Y-78332216D01*
X173871811Y-78337041D01*
X173871813Y-78337043D01*
X173984772Y-78462496D01*
X173994129Y-78472888D01*
X173999387Y-78476708D01*
X173999388Y-78476709D01*
X174032134Y-78500500D01*
X174147270Y-78584151D01*
X174320197Y-78661144D01*
X174505354Y-78700500D01*
X174688143Y-78700500D01*
X174694646Y-78700500D01*
X174879803Y-78661144D01*
X175052730Y-78584151D01*
X175205871Y-78472888D01*
X175332533Y-78332216D01*
X175427179Y-78168284D01*
X175485674Y-77988256D01*
X175505460Y-77800000D01*
X175485674Y-77611744D01*
X175481858Y-77600000D01*
X177694540Y-77600000D01*
X177695219Y-77606460D01*
X177713646Y-77781795D01*
X177713647Y-77781803D01*
X177714326Y-77788256D01*
X177716331Y-77794428D01*
X177716333Y-77794435D01*
X177770813Y-77962105D01*
X177772821Y-77968284D01*
X177776068Y-77973908D01*
X177776069Y-77973910D01*
X177780621Y-77981795D01*
X177867467Y-78132216D01*
X177871811Y-78137041D01*
X177871813Y-78137043D01*
X177989779Y-78268057D01*
X177994129Y-78272888D01*
X178147270Y-78384151D01*
X178320197Y-78461144D01*
X178505354Y-78500500D01*
X178688143Y-78500500D01*
X178694646Y-78500500D01*
X178879803Y-78461144D01*
X179052730Y-78384151D01*
X179205871Y-78272888D01*
X179332533Y-78132216D01*
X179427179Y-77968284D01*
X179485674Y-77788256D01*
X179505460Y-77600000D01*
X179485674Y-77411744D01*
X179427179Y-77231716D01*
X179332533Y-77067784D01*
X179205871Y-76927112D01*
X179200613Y-76923292D01*
X179200611Y-76923290D01*
X179057988Y-76819669D01*
X179057987Y-76819668D01*
X179052730Y-76815849D01*
X179046792Y-76813205D01*
X178885745Y-76741501D01*
X178885740Y-76741499D01*
X178879803Y-76738856D01*
X178873444Y-76737504D01*
X178873440Y-76737503D01*
X178701008Y-76700852D01*
X178701005Y-76700851D01*
X178694646Y-76699500D01*
X178505354Y-76699500D01*
X178498995Y-76700851D01*
X178498991Y-76700852D01*
X178326559Y-76737503D01*
X178326552Y-76737505D01*
X178320197Y-76738856D01*
X178314262Y-76741498D01*
X178314254Y-76741501D01*
X178153207Y-76813205D01*
X178153202Y-76813207D01*
X178147270Y-76815849D01*
X178142016Y-76819665D01*
X178142011Y-76819669D01*
X177999388Y-76923290D01*
X177999381Y-76923295D01*
X177994129Y-76927112D01*
X177989784Y-76931937D01*
X177989779Y-76931942D01*
X177871813Y-77062956D01*
X177871808Y-77062962D01*
X177867467Y-77067784D01*
X177864222Y-77073404D01*
X177864218Y-77073410D01*
X177776069Y-77226089D01*
X177776066Y-77226094D01*
X177772821Y-77231716D01*
X177770815Y-77237888D01*
X177770813Y-77237894D01*
X177716333Y-77405564D01*
X177716331Y-77405573D01*
X177714326Y-77411744D01*
X177713648Y-77418194D01*
X177713646Y-77418204D01*
X177695962Y-77586464D01*
X177694540Y-77600000D01*
X175481858Y-77600000D01*
X175427179Y-77431716D01*
X175332533Y-77267784D01*
X175205871Y-77127112D01*
X175200613Y-77123292D01*
X175200611Y-77123290D01*
X175057988Y-77019669D01*
X175057987Y-77019668D01*
X175052730Y-77015849D01*
X175046792Y-77013205D01*
X174885745Y-76941501D01*
X174885740Y-76941499D01*
X174879803Y-76938856D01*
X174873444Y-76937504D01*
X174873440Y-76937503D01*
X174701008Y-76900852D01*
X174701005Y-76900851D01*
X174694646Y-76899500D01*
X174505354Y-76899500D01*
X174498995Y-76900851D01*
X174498991Y-76900852D01*
X174326559Y-76937503D01*
X174326552Y-76937505D01*
X174320197Y-76938856D01*
X174314262Y-76941498D01*
X174314254Y-76941501D01*
X174153207Y-77013205D01*
X174153202Y-77013207D01*
X174147270Y-77015849D01*
X174142016Y-77019665D01*
X174142011Y-77019669D01*
X173999388Y-77123290D01*
X173999381Y-77123295D01*
X173994129Y-77127112D01*
X173989784Y-77131937D01*
X173989779Y-77131942D01*
X173871813Y-77262956D01*
X173871808Y-77262962D01*
X173867467Y-77267784D01*
X173864222Y-77273404D01*
X173864218Y-77273410D01*
X173776069Y-77426089D01*
X173776066Y-77426094D01*
X173772821Y-77431716D01*
X173770815Y-77437888D01*
X173770813Y-77437894D01*
X173716333Y-77605564D01*
X173716331Y-77605573D01*
X173714326Y-77611744D01*
X173713648Y-77618194D01*
X173713646Y-77618204D01*
X173696453Y-77781795D01*
X173694540Y-77800000D01*
X149400000Y-77800000D01*
X149400000Y-74000000D01*
X169494540Y-74000000D01*
X169495219Y-74006460D01*
X169513646Y-74181795D01*
X169513647Y-74181803D01*
X169514326Y-74188256D01*
X169516331Y-74194428D01*
X169516333Y-74194435D01*
X169570813Y-74362105D01*
X169572821Y-74368284D01*
X169667467Y-74532216D01*
X169794129Y-74672888D01*
X169947270Y-74784151D01*
X170120197Y-74861144D01*
X170305354Y-74900500D01*
X170488143Y-74900500D01*
X170494646Y-74900500D01*
X170679803Y-74861144D01*
X170852730Y-74784151D01*
X171005871Y-74672888D01*
X171132533Y-74532216D01*
X171227179Y-74368284D01*
X171285674Y-74188256D01*
X171305460Y-74000000D01*
X171285674Y-73811744D01*
X171227179Y-73631716D01*
X171132533Y-73467784D01*
X171005871Y-73327112D01*
X171000613Y-73323292D01*
X171000611Y-73323290D01*
X170857988Y-73219669D01*
X170857987Y-73219668D01*
X170852730Y-73215849D01*
X170821131Y-73201780D01*
X170685745Y-73141501D01*
X170685740Y-73141499D01*
X170679803Y-73138856D01*
X170673444Y-73137504D01*
X170673440Y-73137503D01*
X170501008Y-73100852D01*
X170501005Y-73100851D01*
X170494646Y-73099500D01*
X170305354Y-73099500D01*
X170298995Y-73100851D01*
X170298991Y-73100852D01*
X170126559Y-73137503D01*
X170126552Y-73137505D01*
X170120197Y-73138856D01*
X170114262Y-73141498D01*
X170114254Y-73141501D01*
X169953207Y-73213205D01*
X169953202Y-73213207D01*
X169947270Y-73215849D01*
X169942016Y-73219665D01*
X169942011Y-73219669D01*
X169799388Y-73323290D01*
X169799381Y-73323295D01*
X169794129Y-73327112D01*
X169789784Y-73331937D01*
X169789779Y-73331942D01*
X169671813Y-73462956D01*
X169671808Y-73462962D01*
X169667467Y-73467784D01*
X169664222Y-73473404D01*
X169664218Y-73473410D01*
X169576069Y-73626089D01*
X169576066Y-73626094D01*
X169572821Y-73631716D01*
X169570815Y-73637888D01*
X169570813Y-73637894D01*
X169516333Y-73805564D01*
X169516331Y-73805573D01*
X169514326Y-73811744D01*
X169513648Y-73818194D01*
X169513646Y-73818204D01*
X169495962Y-73986464D01*
X169494540Y-74000000D01*
X149400000Y-74000000D01*
X149400000Y-71800000D01*
X169494540Y-71800000D01*
X169495219Y-71806460D01*
X169513646Y-71981795D01*
X169513647Y-71981803D01*
X169514326Y-71988256D01*
X169516331Y-71994428D01*
X169516333Y-71994435D01*
X169565705Y-72146383D01*
X169572821Y-72168284D01*
X169667467Y-72332216D01*
X169794129Y-72472888D01*
X169947270Y-72584151D01*
X170120197Y-72661144D01*
X170305354Y-72700500D01*
X170488143Y-72700500D01*
X170494646Y-72700500D01*
X170679803Y-72661144D01*
X170852730Y-72584151D01*
X171005871Y-72472888D01*
X171132533Y-72332216D01*
X171227179Y-72168284D01*
X171285674Y-71988256D01*
X171305460Y-71800000D01*
X171287844Y-71632393D01*
X171286353Y-71618204D01*
X171286352Y-71618203D01*
X171285674Y-71611744D01*
X171247015Y-71492765D01*
X223445788Y-71492765D01*
X223446282Y-71497262D01*
X223446283Y-71497267D01*
X223474917Y-71757506D01*
X223474918Y-71757513D01*
X223475414Y-71762018D01*
X223476559Y-71766398D01*
X223476561Y-71766408D01*
X223508830Y-71889838D01*
X223543928Y-72024088D01*
X223545693Y-72028242D01*
X223545696Y-72028250D01*
X223648099Y-72269223D01*
X223649870Y-72273390D01*
X223652226Y-72277251D01*
X223652229Y-72277256D01*
X223768674Y-72468057D01*
X223790982Y-72504610D01*
X223964255Y-72712820D01*
X223967630Y-72715844D01*
X223967631Y-72715845D01*
X224072330Y-72809656D01*
X224165998Y-72893582D01*
X224391910Y-73043044D01*
X224637176Y-73158020D01*
X224896569Y-73236060D01*
X225164561Y-73275500D01*
X225365369Y-73275500D01*
X225367631Y-73275500D01*
X225570156Y-73260677D01*
X225834553Y-73201780D01*
X226087558Y-73105014D01*
X226323777Y-72972441D01*
X226538177Y-72806888D01*
X226726186Y-72611881D01*
X226883799Y-72391579D01*
X227007656Y-72150675D01*
X227095118Y-71894305D01*
X227144319Y-71627933D01*
X227154212Y-71357235D01*
X227124586Y-71087982D01*
X227056072Y-70825912D01*
X226950130Y-70576610D01*
X226809018Y-70345390D01*
X226635745Y-70137180D01*
X226530759Y-70043112D01*
X226437382Y-69959446D01*
X226437378Y-69959442D01*
X226434002Y-69956418D01*
X226208090Y-69806956D01*
X226203996Y-69805036D01*
X226203991Y-69805034D01*
X225966929Y-69693904D01*
X225966925Y-69693902D01*
X225962824Y-69691980D01*
X225958477Y-69690672D01*
X225958474Y-69690671D01*
X225707772Y-69615246D01*
X225707771Y-69615245D01*
X225703431Y-69613940D01*
X225698957Y-69613281D01*
X225698950Y-69613280D01*
X225439913Y-69575158D01*
X225439907Y-69575157D01*
X225435439Y-69574500D01*
X225232369Y-69574500D01*
X225230120Y-69574664D01*
X225230109Y-69574665D01*
X225034363Y-69588992D01*
X225034359Y-69588992D01*
X225029844Y-69589323D01*
X225025426Y-69590307D01*
X225025420Y-69590308D01*
X224769877Y-69647232D01*
X224769861Y-69647236D01*
X224765447Y-69648220D01*
X224761216Y-69649838D01*
X224761210Y-69649840D01*
X224516673Y-69743367D01*
X224516663Y-69743371D01*
X224512442Y-69744986D01*
X224508494Y-69747201D01*
X224508489Y-69747204D01*
X224280176Y-69875340D01*
X224280171Y-69875343D01*
X224276223Y-69877559D01*
X224272639Y-69880325D01*
X224272635Y-69880329D01*
X224065407Y-70040343D01*
X224065394Y-70040354D01*
X224061823Y-70043112D01*
X224058685Y-70046366D01*
X224058678Y-70046373D01*
X223876958Y-70234857D01*
X223876952Y-70234864D01*
X223873814Y-70238119D01*
X223871189Y-70241787D01*
X223871179Y-70241800D01*
X223718834Y-70454740D01*
X223718830Y-70454745D01*
X223716201Y-70458421D01*
X223714132Y-70462444D01*
X223714129Y-70462450D01*
X223594416Y-70695293D01*
X223594411Y-70695304D01*
X223592344Y-70699325D01*
X223590884Y-70703602D01*
X223590879Y-70703616D01*
X223506348Y-70951395D01*
X223506344Y-70951407D01*
X223504882Y-70955695D01*
X223504057Y-70960159D01*
X223504057Y-70960161D01*
X223456504Y-71217606D01*
X223456502Y-71217619D01*
X223455681Y-71222067D01*
X223455515Y-71226593D01*
X223455515Y-71226599D01*
X223448225Y-71426089D01*
X223445788Y-71492765D01*
X171247015Y-71492765D01*
X171227179Y-71431716D01*
X171132533Y-71267784D01*
X171087352Y-71217606D01*
X171010220Y-71131942D01*
X171010219Y-71131941D01*
X171005871Y-71127112D01*
X171000613Y-71123292D01*
X171000611Y-71123290D01*
X170857988Y-71019669D01*
X170857987Y-71019668D01*
X170852730Y-71015849D01*
X170846792Y-71013205D01*
X170685745Y-70941501D01*
X170685740Y-70941499D01*
X170679803Y-70938856D01*
X170673444Y-70937504D01*
X170673440Y-70937503D01*
X170501008Y-70900852D01*
X170501005Y-70900851D01*
X170494646Y-70899500D01*
X170305354Y-70899500D01*
X170298995Y-70900851D01*
X170298991Y-70900852D01*
X170126559Y-70937503D01*
X170126552Y-70937505D01*
X170120197Y-70938856D01*
X170114262Y-70941498D01*
X170114254Y-70941501D01*
X169953207Y-71013205D01*
X169953202Y-71013207D01*
X169947270Y-71015849D01*
X169942016Y-71019665D01*
X169942011Y-71019669D01*
X169799388Y-71123290D01*
X169799381Y-71123295D01*
X169794129Y-71127112D01*
X169789784Y-71131937D01*
X169789779Y-71131942D01*
X169671813Y-71262956D01*
X169671808Y-71262962D01*
X169667467Y-71267784D01*
X169664222Y-71273404D01*
X169664218Y-71273410D01*
X169576069Y-71426089D01*
X169576066Y-71426094D01*
X169572821Y-71431716D01*
X169570815Y-71437888D01*
X169570813Y-71437894D01*
X169516333Y-71605564D01*
X169516331Y-71605573D01*
X169514326Y-71611744D01*
X169513648Y-71618194D01*
X169513646Y-71618204D01*
X169495962Y-71786464D01*
X169494540Y-71800000D01*
X149400000Y-71800000D01*
X149400000Y-68624500D01*
X149416613Y-68562500D01*
X149462000Y-68517113D01*
X149524000Y-68500500D01*
X225134108Y-68500500D01*
X225196519Y-68500500D01*
X225203471Y-68500695D01*
G37*
%TD.AperFunction*%
%TD*%
M02*
