M48
; DRILL file {KiCad (7.0.0)} date Wed Sep 27 17:19:53 2023
; FORMAT={-:-/ absolute / metric / decimal}
; #@! TF.CreationDate,2023-09-27T17:19:53+02:00
; #@! TF.GenerationSoftware,Kicad,Pcbnew,(7.0.0)
; #@! TF.FileFunction,Plated,1,4,PTH
FMAT,2
METRIC
; #@! TA.AperFunction,Plated,PTH,ViaDrill
T1C0.300
; #@! TA.AperFunction,Plated,PTH,ComponentDrill
T2C0.800
; #@! TA.AperFunction,Plated,PTH,ComponentDrill
T3C0.900
; #@! TA.AperFunction,Plated,PTH,ComponentDrill
T4C1.000
; #@! TA.AperFunction,Plated,PTH,ComponentDrill
T5C1.020
; #@! TA.AperFunction,Plated,PTH,ComponentDrill
T6C1.320
; #@! TA.AperFunction,Plated,PTH,ComponentDrill
T7C1.800
; #@! TA.AperFunction,Plated,PTH,ComponentDrill
T8C2.700
%
G90
G05
T1
X100.7Y-151.9
X100.8Y-144.6
X100.8Y-145.4
X100.8Y-146.2
X108.2Y-133.8
X108.825Y-135.7
X108.825Y-137.075
X108.825Y-138.282
X108.825Y-139.4
X109.8Y-139.9
X111.9Y-133.8
X115.4Y-95.0
X116.2Y-92.4
X117.175Y-138.975
X117.4Y-136.8
X118.0Y-134.5
X119.5Y-140.6
X121.5Y-92.4
X122.6Y-89.5
X123.5Y-114.1
X125.4Y-144.4
X134.7Y-80.3
X136.4Y-62.3
X136.7Y-104.9
X136.7Y-109.6
X141.3Y-97.4
X142.2Y-97.4
X148.6Y-85.7
X151.1Y-98.6
X151.1Y-105.3
X151.7Y-88.8
X151.9Y-73.5
X152.9Y-94.9
X152.9Y-104.4
X153.5Y-81.1
X164.3Y-120.4
X165.3Y-113.14
X165.3Y-133.0
X168.0Y-95.3
X169.0Y-92.4
X172.2Y-94.0
X173.0Y-94.3
X174.2Y-92.2
X175.4Y-89.2
X178.0Y-132.8
T2
X103.7Y-128.082
X103.7Y-130.582
X103.7Y-135.282
X103.7Y-137.782
X130.8Y-145.0
X130.8Y-147.5
X134.8Y-78.3
X137.3Y-78.3
X141.2Y-62.425
X141.2Y-64.965
X141.2Y-67.505
X141.2Y-70.045
X141.2Y-72.585
X141.2Y-75.125
X141.2Y-77.665
X141.2Y-80.205
X148.82Y-62.425
X148.82Y-64.965
X148.82Y-67.505
X148.82Y-70.045
X148.82Y-72.585
X148.82Y-75.125
X148.82Y-77.665
X148.82Y-80.205
T3
X123.0Y-128.676
X123.0Y-131.216
X123.0Y-133.756
T4
X155.86Y-63.92
X155.86Y-66.46
X155.86Y-69.0
X158.4Y-63.92
X158.4Y-66.46
X158.4Y-69.0
X167.4Y-130.505
X167.4Y-133.045
X167.4Y-135.585
X167.5Y-110.12
X167.5Y-112.66
X167.5Y-115.2
X167.5Y-117.74
X179.8Y-107.58
X179.8Y-110.12
X179.8Y-112.66
X179.8Y-115.2
X179.8Y-117.74
X180.0Y-130.505
X180.0Y-133.045
X180.0Y-135.585
T5
X132.3Y-90.65
X132.3Y-93.19
X132.3Y-95.73
X132.3Y-98.27
X132.3Y-100.81
X132.3Y-103.35
X132.3Y-105.89
X132.3Y-108.43
X132.3Y-110.97
X132.3Y-113.51
X132.3Y-116.05
X132.3Y-118.59
X132.3Y-121.13
X132.3Y-123.67
X132.3Y-126.21
X132.3Y-128.75
X132.3Y-131.29
X132.3Y-133.83
X132.3Y-136.37
X157.7Y-90.65
X157.7Y-93.19
X157.7Y-95.73
X157.7Y-98.27
X157.7Y-100.81
X157.7Y-103.35
X157.7Y-105.89
X157.7Y-108.43
X157.7Y-110.97
X157.7Y-113.51
X157.7Y-116.05
X157.7Y-118.59
X157.7Y-121.13
X157.7Y-123.67
X157.7Y-126.21
X157.7Y-128.75
X157.7Y-131.29
X157.7Y-133.83
X157.7Y-136.37
T6
X103.5Y-107.865
X103.5Y-112.865
X119.5Y-73.895
X119.5Y-78.895
X170.5Y-73.895
X170.5Y-78.895
T7
X138.25Y-154.3
X151.75Y-154.3
T8
X141.4Y-148.3
X148.6Y-148.3
T0
M30
