G04 #@! TF.GenerationSoftware,KiCad,Pcbnew,(7.0.0)*
G04 #@! TF.CreationDate,2023-09-27T17:19:24+02:00*
G04 #@! TF.ProjectId,Rover_1,526f7665-725f-4312-9e6b-696361645f70,rev?*
G04 #@! TF.SameCoordinates,Original*
G04 #@! TF.FileFunction,Profile,NP*
%FSLAX46Y46*%
G04 Gerber Fmt 4.6, Leading zero omitted, Abs format (unit mm)*
G04 Created by KiCad (PCBNEW (7.0.0)) date 2023-09-27 17:19:24*
%MOMM*%
%LPD*%
G01*
G04 APERTURE LIST*
G04 #@! TA.AperFunction,Profile*
%ADD10C,0.100000*%
G04 #@! TD*
G04 APERTURE END LIST*
D10*
X113700000Y-70000000D02*
G75*
G03*
X113200000Y-70500000I0J-500000D01*
G01*
X180200000Y-96600000D02*
X190000000Y-96600000D01*
X129404163Y-60004163D02*
G75*
G03*
X126004163Y-63404163I37J-3400037D01*
G01*
X96600000Y-155000000D02*
X96600000Y-100000000D01*
X109800000Y-96600000D02*
G75*
G03*
X113200000Y-93200000I0J3400000D01*
G01*
X193400000Y-155000000D02*
X193400000Y-100000000D01*
X167400000Y-70000000D02*
X176300000Y-70000000D01*
X176800001Y-70499999D02*
G75*
G03*
X176300001Y-69999999I-500001J-1D01*
G01*
X164000000Y-63400000D02*
X164000000Y-66600000D01*
X100000000Y-96600000D02*
G75*
G03*
X96600000Y-100000000I0J-3400000D01*
G01*
X100000000Y-96600000D02*
X109800000Y-96600000D01*
X164000000Y-66600000D02*
G75*
G03*
X167400000Y-70000000I3400000J0D01*
G01*
X113200000Y-93200000D02*
X113200000Y-70500000D01*
X193400000Y-100000000D02*
G75*
G03*
X190000000Y-96600000I-3400000J0D01*
G01*
X164000000Y-63400000D02*
G75*
G03*
X160600000Y-60000000I-3400000J0D01*
G01*
X113700000Y-70000000D02*
X122600000Y-70000000D01*
X176800001Y-70499999D02*
X176800000Y-93200000D01*
X129404163Y-60004163D02*
X160600000Y-60000000D01*
X190000000Y-158400000D02*
X100000000Y-158400000D01*
X126000000Y-66600000D02*
X126004163Y-63404163D01*
X190000000Y-158400000D02*
G75*
G03*
X193400000Y-155000000I0J3400000D01*
G01*
X176800000Y-93200000D02*
G75*
G03*
X180200000Y-96600000I3400000J0D01*
G01*
X96600000Y-155000000D02*
G75*
G03*
X100000000Y-158400000I3400000J0D01*
G01*
X122600000Y-70000000D02*
G75*
G03*
X126000000Y-66600000I0J3400000D01*
G01*
M02*
