G04 #@! TF.GenerationSoftware,KiCad,Pcbnew,(7.0.0)*
G04 #@! TF.CreationDate,2023-09-27T17:19:24+02:00*
G04 #@! TF.ProjectId,Rover_1,526f7665-725f-4312-9e6b-696361645f70,rev?*
G04 #@! TF.SameCoordinates,Original*
G04 #@! TF.FileFunction,Soldermask,Bot*
G04 #@! TF.FilePolarity,Negative*
%FSLAX46Y46*%
G04 Gerber Fmt 4.6, Leading zero omitted, Abs format (unit mm)*
G04 Created by KiCad (PCBNEW (7.0.0)) date 2023-09-27 17:19:24*
%MOMM*%
%LPD*%
G01*
G04 APERTURE LIST*
G04 Aperture macros list*
%AMRoundRect*
0 Rectangle with rounded corners*
0 $1 Rounding radius*
0 $2 $3 $4 $5 $6 $7 $8 $9 X,Y pos of 4 corners*
0 Add a 4 corners polygon primitive as box body*
4,1,4,$2,$3,$4,$5,$6,$7,$8,$9,$2,$3,0*
0 Add four circle primitives for the rounded corners*
1,1,$1+$1,$2,$3*
1,1,$1+$1,$4,$5*
1,1,$1+$1,$6,$7*
1,1,$1+$1,$8,$9*
0 Add four rect primitives between the rounded corners*
20,1,$1+$1,$2,$3,$4,$5,0*
20,1,$1+$1,$4,$5,$6,$7,0*
20,1,$1+$1,$6,$7,$8,$9,0*
20,1,$1+$1,$8,$9,$2,$3,0*%
G04 Aperture macros list end*
%ADD10R,1.700000X1.700000*%
%ADD11O,1.700000X1.700000*%
%ADD12R,1.600000X1.600000*%
%ADD13C,1.600000*%
%ADD14R,3.960000X1.980000*%
%ADD15O,3.960000X1.980000*%
%ADD16C,3.200000*%
%ADD17C,1.676400*%
%ADD18RoundRect,0.102000X-0.765000X-0.765000X0.765000X-0.765000X0.765000X0.765000X-0.765000X0.765000X0*%
%ADD19C,1.734000*%
%ADD20O,1.600000X1.600000*%
%ADD21C,4.050000*%
%ADD22C,2.700000*%
%ADD23RoundRect,0.250000X-0.350000X-0.450000X0.350000X-0.450000X0.350000X0.450000X-0.350000X0.450000X0*%
%ADD24RoundRect,0.250000X-0.337500X-0.475000X0.337500X-0.475000X0.337500X0.475000X-0.337500X0.475000X0*%
%ADD25RoundRect,0.250000X0.475000X-0.337500X0.475000X0.337500X-0.475000X0.337500X-0.475000X-0.337500X0*%
%ADD26RoundRect,0.250000X0.337500X0.475000X-0.337500X0.475000X-0.337500X-0.475000X0.337500X-0.475000X0*%
G04 APERTURE END LIST*
D10*
X167399999Y-130504999D03*
D11*
X167399999Y-133044999D03*
X167399999Y-135584999D03*
D12*
X103699999Y-130582378D03*
D13*
X103700000Y-128082379D03*
D14*
X170499999Y-73894999D03*
D15*
X170499999Y-78894999D03*
D16*
X190000000Y-100000000D03*
D12*
X137299999Y-78299999D03*
D13*
X134800000Y-78300000D03*
D17*
X123000000Y-133756000D03*
X123000000Y-131216000D03*
X123000000Y-128676000D03*
D16*
X100000000Y-100000000D03*
D10*
X179999999Y-130504999D03*
D11*
X179999999Y-133044999D03*
X179999999Y-135584999D03*
D14*
X103499999Y-112864999D03*
D15*
X103499999Y-107864999D03*
D10*
X167499999Y-117739999D03*
D11*
X167499999Y-115199999D03*
X167499999Y-112659999D03*
X167499999Y-110119999D03*
D18*
X132300000Y-90650000D03*
D19*
X132300000Y-93190000D03*
X132300000Y-95730000D03*
X132300000Y-98270000D03*
X132300000Y-100810000D03*
X132300000Y-103350000D03*
X132300000Y-105890000D03*
X132300000Y-108430000D03*
X132300000Y-110970000D03*
X132300000Y-113510000D03*
X132300000Y-116050000D03*
X132300000Y-118590000D03*
X132300000Y-121130000D03*
X132300000Y-123670000D03*
X132300000Y-126210000D03*
X132300000Y-128750000D03*
X132300000Y-131290000D03*
X132300000Y-133830000D03*
X132300000Y-136370000D03*
X157700000Y-136370000D03*
X157700000Y-133830000D03*
X157700000Y-131290000D03*
X157700000Y-128750000D03*
X157700000Y-126210000D03*
X157700000Y-123670000D03*
X157700000Y-121130000D03*
X157700000Y-118590000D03*
X157700000Y-116050000D03*
X157700000Y-113510000D03*
X157700000Y-110970000D03*
X157700000Y-108430000D03*
X157700000Y-105890000D03*
X157700000Y-103350000D03*
X157700000Y-100810000D03*
X157700000Y-98270000D03*
X157700000Y-95730000D03*
X157700000Y-93190000D03*
X157700000Y-90650000D03*
D14*
X119499999Y-78894999D03*
D15*
X119499999Y-73894999D03*
D16*
X130000000Y-155000000D03*
D12*
X141199999Y-62424999D03*
D20*
X141199999Y-64964999D03*
X141199999Y-67504999D03*
X141199999Y-70044999D03*
X141199999Y-72584999D03*
X141199999Y-75124999D03*
X141199999Y-77664999D03*
X141199999Y-80204999D03*
X148819999Y-80204999D03*
X148819999Y-77664999D03*
X148819999Y-75124999D03*
X148819999Y-72584999D03*
X148819999Y-70044999D03*
X148819999Y-67504999D03*
X148819999Y-64964999D03*
X148819999Y-62424999D03*
D10*
X179799999Y-107579999D03*
D11*
X179799999Y-110119999D03*
X179799999Y-112659999D03*
X179799999Y-115199999D03*
X179799999Y-117739999D03*
D12*
X103699999Y-137782378D03*
D13*
X103700000Y-135282379D03*
D10*
X155859999Y-63919999D03*
D11*
X158399999Y-63919999D03*
X155859999Y-66459999D03*
X158399999Y-66459999D03*
X155859999Y-68999999D03*
X158399999Y-68999999D03*
D12*
X130799999Y-147499999D03*
D13*
X130800000Y-145000000D03*
D21*
X148600000Y-148300000D03*
X141400000Y-148300000D03*
D22*
X138250000Y-154300000D03*
X151750000Y-154300000D03*
D16*
X160000000Y-155000000D03*
D23*
X109000000Y-133800000D03*
X111000000Y-133800000D03*
D24*
X116562500Y-140600000D03*
X118637500Y-140600000D03*
D25*
X175400000Y-92137500D03*
X175400000Y-90062500D03*
X122600000Y-92437500D03*
X122600000Y-90362500D03*
D23*
X113100000Y-133800000D03*
X115100000Y-133800000D03*
D26*
X137637500Y-80300000D03*
X135562500Y-80300000D03*
M02*
